<svg xmlns="http://www.w3.org/2000/svg" xmlns:xlink="http://www.w3.org/1999/xlink" preserveAspectRatio="xMidYMid" width="15" height="15" viewBox="0 0 15 15">
  <defs>
    <style>

      .cls-2 {
        fill: #cdcdcd;
      }
    </style>
  </defs>
  <path d="M7.500,15.000 C3.358,15.000 -0.000,11.642 -0.000,7.500 C-0.000,3.358 3.358,-0.000 7.500,-0.000 C11.642,-0.000 15.000,3.358 15.000,7.500 C15.000,11.642 11.642,15.000 7.500,15.000 ZM7.500,0.937 C3.876,0.937 0.937,3.875 0.937,7.500 C0.937,11.124 3.876,14.062 7.500,14.062 C11.124,14.062 14.062,11.124 14.062,7.500 C14.062,3.875 11.124,0.937 7.500,0.937 ZM12.187,7.969 C12.187,7.969 12.187,7.031 12.187,7.031 C12.187,7.031 13.125,7.031 13.125,7.031 C13.125,7.031 13.125,7.969 13.125,7.969 C13.125,7.969 12.187,7.969 12.187,7.969 ZM10.874,11.340 C10.874,11.340 10.211,10.677 10.211,10.677 C10.211,10.677 10.874,10.014 10.874,10.014 C10.874,10.014 11.537,10.677 11.537,10.677 C11.537,10.677 10.874,11.340 10.874,11.340 ZM10.348,3.878 C10.348,3.878 10.997,3.228 10.997,3.228 C10.997,3.228 11.645,3.878 11.645,3.878 C11.645,3.878 10.997,4.528 10.997,4.528 C10.997,4.528 10.348,3.878 10.348,3.878 ZM7.031,12.187 C7.031,12.187 7.969,12.187 7.969,12.187 C7.969,12.187 7.969,13.125 7.969,13.125 C7.969,13.125 7.031,13.125 7.031,13.125 C7.031,13.125 7.031,12.187 7.031,12.187 ZM7.500,7.980 C7.500,7.980 3.281,7.980 3.281,7.980 C3.022,7.980 2.812,7.770 2.812,7.511 C2.812,7.252 3.022,7.042 3.281,7.042 C3.281,7.042 7.031,7.042 7.031,7.042 C7.031,7.042 7.031,2.344 7.031,2.344 C7.031,2.085 7.241,1.875 7.500,1.875 C7.759,1.875 7.969,2.085 7.969,2.344 C7.969,2.344 7.969,7.511 7.969,7.511 C7.969,7.770 7.759,7.980 7.500,7.980 ZM3.217,3.901 C3.217,3.901 3.880,3.238 3.880,3.238 C3.880,3.238 4.543,3.901 4.543,3.901 C4.543,3.901 3.880,4.564 3.880,4.564 C3.880,4.564 3.217,3.901 3.217,3.901 ZM4.453,10.702 C4.453,10.702 3.805,11.352 3.805,11.352 C3.805,11.352 3.156,10.702 3.156,10.702 C3.156,10.702 3.805,10.052 3.805,10.052 C3.805,10.052 4.453,10.702 4.453,10.702 Z" id="path-1" class="cls-2" fill-rule="evenodd"/>
</svg>
