<svg xmlns="http://www.w3.org/2000/svg" preserveAspectRatio="xMidYMid" width="10" height="10" viewBox="0 0 10 10"><defs><style>.cls-2 { fill: #abafb3; }</style></defs><path d="M5.977 4.562l2.882 2.883c.361.36.336.969-.054 1.36-.391.39-.999.415-1.36.054l-2.883-2.883-2.882 2.883c-.361.361-.97.336-1.36-.054-.391-.391-.415-1-.055-1.36l2.883-2.883-2.883-2.883c-.36-.36-.336-.969.055-1.359.39-.391.999-.415 1.36-.055l2.882 2.883 2.883-2.883c.361-.36.969-.336 1.36.055.39.39.415.999.054 1.359l-2.882 2.883z" id="path-1" class="cls-2" fill-rule="evenodd"/></svg>