<svg xmlns="http://www.w3.org/2000/svg" xmlns:xlink="http://www.w3.org/1999/xlink" preserveAspectRatio="xMidYMid" width="10" height="10" viewBox="0 0 10 10">
  <defs>
    <style>

      .cls-2 {
        fill: #abafb3;
      }
    </style>
  </defs>
  <path d="M5.977,4.562 C5.977,4.562 8.859,7.445 8.859,7.445 C9.220,7.805 9.195,8.414 8.805,8.805 C8.414,9.195 7.806,9.220 7.445,8.859 C7.445,8.859 4.562,5.976 4.562,5.976 C4.562,5.976 1.680,8.859 1.680,8.859 C1.319,9.220 0.710,9.195 0.320,8.805 C-0.071,8.414 -0.095,7.805 0.265,7.445 C0.265,7.445 3.148,4.562 3.148,4.562 C3.148,4.562 0.265,1.679 0.265,1.679 C-0.095,1.319 -0.071,0.710 0.320,0.320 C0.710,-0.071 1.319,-0.095 1.680,0.265 C1.680,0.265 4.562,3.148 4.562,3.148 C4.562,3.148 7.445,0.265 7.445,0.265 C7.806,-0.095 8.414,-0.071 8.805,0.320 C9.195,0.710 9.220,1.319 8.859,1.679 C8.859,1.679 5.977,4.562 5.977,4.562 Z" id="path-1" class="cls-2" fill-rule="evenodd"/>
</svg>
