<svg xmlns="http://www.w3.org/2000/svg" preserveAspectRatio="xMidYMid" width="17" height="17" viewBox="0 0 17 17"><defs><style>.cls-2 { fill: #6d9edc; }</style></defs><path d="M8.5 14.875c-.544 0-1.074-.049-1.589-.135l-3.724 2.26v-3.762c-1.941-1.363-3.187-3.453-3.187-5.801 0-4.107 3.806-7.437 8.5-7.437s8.5 3.33 8.5 7.437c0 4.108-3.806 7.438-8.5 7.438zm0-13.813c-4.108 0-7.437 2.855-7.437 6.375 0 2.161 1.256 4.066 3.174 5.219l-.034 2.464 2.501-1.503c.576.123 1.176.195 1.796.195 4.108 0 7.437-2.854 7.437-6.375 0-3.52-3.329-6.375-7.437-6.375zm3.719 5.844h-7.438c-.293 0-.531-.238-.531-.531 0-.294.238-.532.531-.532h7.438c.293 0 .531.238.531.532 0 .293-.238.531-.531.531zm-6.375 2.125h5.312c.294 0 .531.238.531.531 0 .294-.237.532-.531.532h-5.312c-.294 0-.532-.238-.532-.532 0-.293.238-.531.532-.531z" id="path-1" class="cls-2" fill-rule="evenodd"/></svg>