<svg xmlns="http://www.w3.org/2000/svg" viewBox="0 0 796 414.2" enable-background="new 0 0 796 414.2"><g fill="#BFD0CC"><path fill-rule="evenodd" clip-rule="evenodd" d="M631 81.9l-.7 1.9 1.7 1.1 1.8-1.1-.6-2.3-2.2.4zM473.9 131.8l3 2.4 1.3-2.2.5-1.8-1.7-1-2-.3-1.1 2.9zM468 138.9l1 1.2 3.3-2.1-.8-2-2-.1-1.2 1.9-.3 1.1zM542.1 107.7l5.1.7.2 2.5-2 .6-2.3-1.5-1-2.3zM555.4 99.4l.9 4h2.1l.4-3.6-2.1-1.7-1.3 1.3zM560 102.8v4.6l5.2-1.1 4.8-2.5-1.6-3.8-3.2-.4-2.4-.5-1.8 2.6-1 1.1zM561.7 77.1l1.5 3.3 9.9.1 2.9-5.3-1.9-4-2.1 2.3-4.1-.4-1.1 1.9h-2.2l-.3 2.2-2.6-.1zM557.8 60.6l-.6 2.4 2 .5.7-2.1-2.1-.8zM552.6 81.9l2.3 3.5 4.3.9.1-4.9-1.5-2.4-5-.4-2.7 1.9-4-.7-.3 2.8 2.4 2.5-1.3 1.5-3.9-3.1-4.6.4-.3 3.7.4 3.9 2.1 2.6.8 3 4.2 1.2 4-.3-.3-4.2 2.8.3 2.2-3.6 2.7.5 1.7-1.9-1.7-1.8-3.9-1.1-3.1-3.6 2.6-.7zM533.2 91.1l.7 3 2.6 3.1 1.7-.7-2-3.6-3-1.8zM647.2 84.6l-1.3 2.6-7.2 4-5.2-4.9-5.2-.5-7.5 4.8-5.1 6.3-1.8 6.4-3.4 1-4.2-2.1-4 .4-2.1 2.7-1.8-1.5-1.7 1.8-2.1-2 3-3-7.1-.5-4 3.5 2.2 7.6-4 3.9v-5.8h-2.8l-2.7 2.4-.7-3 4.1-3.6-4.3.2-12.8 6.6 2.4 3-3.6 3.5 1.4 2.6 2.6-1.3.3 3.8 3.1 3.6-4.8 1.2-1.4 2 1.3 3.1-3.9.7-5.3-1.6-1.5 5.9-8.9-1.6v13l-6.3-1-9.6-8.7 3.5-2.5-5.9-8.8-3.8-1.8-5.7 2-6.4-2.5-.9 9.9-11.6 5-4.5-3 .7-2.4-11.9-.1-3.1 4.2-.8 2.7-.8-4-2.2-2-2.6 2.7-3.7 1.8-.2 2.5 1.7 2.3h.1v.1l.8 4 5.5 7.9.1.1v5.199999999999999l2.8 3.4.2.2-.2.2-6.5 5.2-.4 3v.1l-1.6 2.3-1.1 5.5-.1.3-.2-.1-3.2-.3-5.1 4.2h-.1l-1.7.9 4.1 6.2v.1l1.4 17.5v.2l-3.6 4 2.3 1.8.2.1-.1.2-.9 4.6 2.1 2.3v3.4000000000000004l2.5 1.7.2.1-.1.2-1.2 3.2v.1l-3.8 4.5-.3 3.2h6.1l.1.1 2.6 2 2.9-1.8.2-.2.1.2 1.6 2 .1.2 2.1 3.1.1.2-.2.2-2.3 1.5v2.8l2.6.2 2.2-1.6.2-.1.1.2 2.7 5.2v.1l-.2 6.2 3.5 1.9.1.1v.2l-1.6 6.4 2 4.3 4.4 1.4h.2l-.1.3-3.3 7.8-.7 9.8 3.4 3.6 3.6-2.8.1-.1h.1l5.5-.2 1.9-3.5.2-.3.2.3 3 2.9 3.8-4.5 6.1-13v-.1h.2l4-.7h.1l7.9 3.2h.1l.1.1 1.7 5.2 4.7-2.2h.2l2.9 2.1h.1v.1l5.3 12 6.9 12.7 4.3-2.8h.1l4.5-1.8.1-.1.1.1 3.5 2.8 1.8-1.7.2-.1.1.2 2.8 2.5 2.5-2.5.1-.1h.1l6.3.2h.1l.1.1 3.9 3 7.7-2.8.2-.1.1.1 2.6 2.1 10.6-4.8.1-.1h.1l3 .7 3.4-1.3-.4-2.5-.1-.1.2-.1 8.2-4.3-2-5.8-.1-.1.1-.2 2.8-2.9-1.1-2.9-5.3-3.4-.2-.2.1-.2 2.8-5.3-5.2-3.6-.2-.1.2-.2 2.4-2.8v-12l.1-.1 10.2-3.8.4-4.6v-.2h.2l6-.4 1.3-3.7-.2-3.9v-.1l.2-.1 2.9-1.4-2.2-7.7-4-2.8-.2-.1.1-.2 2.6-9.4-3.6-9.7-.1-.2.1-.1 2-2.6.1-.2.2.1 7.1 2.4 4.6-1 1.6-2.7v-.1l.1-.1 5.4-.8 1-3.4-9-18.6v-.2l.9-4.5v-.1l.1-.1 6-4.2-2.2-4.4-.1-.1.1-.2 5.8-5.4.1-.1h.1l5.2-.5 2.9-3.3.6-5.8-3.4-3-.1-.1v-.1l-.2-3.8-2.1-3.2-.1-.2.1-.1 2.6-2.4-2.8-3.3-.1-.1.1-.2 6.8-6.2 3.1-1.3 2.2-3.3-4.2-8.8h-5.3999999999999995l-4.2-1.8-.1-.1v-.1l-2.2-5.6-.1-.1.1-.1 8.5-10v-4.9l-11.1-8.3zM660.4 19.6l5.6 6.6 1.2-1.2 1.6-7.7 1.8-3.6-2-2.7-5.2.4-3 4.6v3.6zM747.3 86.7l-1.3-14.1-3.9-2.2 9.2-6.4-1.3-4.3-17.2-1.5-2.1 2.8-4.7.3-.5 3.7-3.8-.3v-5l4.3-1.5 1.7-3.5-.9-9.3-1.7-.6-2.1 1.3-.1-3.4-4.1 1.6-2.7-3.2 1-5.1 3.4 3 2-1.5 2.9 3.1 1.7-3.9-.4-4.7 3.1-2.6 5.5.5 9.1-6.9-2.2-2.6 4.6.6-.2-4.4-4.9.9-1.5-3.1-6.6-1.3 2.6-3.3-3.4-2.5 3.1-2.2-3.9-5.1-11.1 6.5-.6 5.4-3 3.9 7.4 3-4 1.8-12-3.2-14 9.2-20.9 11.4-5.6 9.1.5 2.8-3.8 1-5.3 4.8 3.8 4.7 3.4-1 5 2.9-.5 5.1-4.7.5-3.1 1.8-6.7-4.2v8.5l-6.8 5.1-2.6 5.1 11.3 8.4.1.1v5.299999999999999l-.1.1-8.4 9.9 2.1 5.4 4 1.7h5.6000000000000005v.2l2.2 4.4 3.5.5h.1l.1.1 2.2 4 4.7-2.2.1-.1.1.1 4.4 1.4 3.4-3v-.1h.1l5.2-.4 3.8-4-.7-3.9v-.2h.2l3.9-1.3 1-3.7.1-.1h.1l3.3-.4 1.1-3.1v-.1l.2-.1 6-1.4 1.6-2.8.1-.1h.1l9.1-.6h.2v.2l2.2 5.8 6.3-2h.1l6.9.2 5.6-16v-.3l.3.1 3.4 1.8 4.3-1.3zM790 158.4l2 2 4-3.2-1.7-.4-4.3 1.6zM773 244.1l.3 1.5 2 1.3.9-2.4-1.1-1.8-2.1 1.4zM779.2 241.2l-.3 1.4 2.1.9 1.2-1.3-2.1-1.9-.9.9zM777.9 244.3l-.6 6.1 2.4 3 2.2-1-.5-6-1.7-1.5-1.8-.6zM781.2 257.7l-.3 2.3 1 2.2 2.8-1.3.4-1.4-3.9-1.8zM784.8 275.4l-1 2 1.5 2.2 1.9-1.8-1.2-2.2-1.2-.2zM785 286.6l1 1.7 1.5-.5.3-2.8-1.9-.4-.9 2zM786.3 291.1l-1.6 1.6 1.2 3.3 3.7-1-1.2-3.3-2.1-.6zM783.9 304.8l-1.9 1.8.1 3.8.1 4 .1 1.8h1.9l1.6-4.5-.4-4.4-1.5-2.5zM778.4 319.7h1.9l.6 2.6-1.4 2.1-1.8 2.6-.2 2.9-.5 3.5-.3 2.7-.9-.4-.7-4.7-.2-5.8 2.4-2.4 1.3-1.1-.2-2zM771.5 350.7l1-.4.3-6.8 1.2-1.4.2-1.7-1.2-.8-1.9.9-1.1.8 1 3-.4 3.8.9 2.6zM778.7 343.9l.6 1.4 1.9-.7-.4-2-1.1-1.5-1 1.1v1.7zM741.9 144.9l-1.6 4.6 5.8 6.5.8-9.4-3.1-1.4-1.9-.3zM780 161.9l1.6 2.4 5.7.9 2.4-1.2-1.4-2.5-4.3-.5-4 .9zM674.9 213.4l3.5-2.3 2.3-2 3.3-.8-1.1-6.6 5.8-1.9 4.4-3.9 4.1-.1-3 4.3 2.8 2.5 4.2-4.7 1.1-7.5 3.7-1.4 3-3.9-3.1-2.4-2.7 3.4-2.9-2.7-.8-13.4-2.5-8 .8-5.9 4.9-6.9 2.7-.1 1.3-3.9 5.6 7.7 3.9-.7.3-2.9-.9-5.8-1-4.2-3.8-2.1-.1-.1v-.1l-.7-3.7-2.5-2.3-3.9.4h-.2v-.2l-2.4-6.1-3.3-.7h-.1l-.1-.1-5.3-7.8-3.8 4h-.2l-5.2.4-3.4 3-.1.1h-.1l-4.5-1.5-4.8 2.4-.2.1-.1-.2-2.3-4.1-3.1-.5 2 4.2.1.1-.1.1-2.4 3.5h-.1l-3 1.3-6.6 6 2.8 3.3.2.2-.2.1-2.6 2.4 2.1 3.1v.1l.2 3.8 3.4 3 .1.1v.1l-.6 6v.1h-.1l-3 3.5-.1.1h-.1l-5.2.5-5.6 5.3 2.3 4.4.1.1-.2.2-6.1 4.3-.9 4.3 8.8 18.4 4.1-2.7.1-.1.1.1 9.3 3 .1.1v.1l1.1 5.1v.1l-.1.1-2.2 4 1.7 3.3 3.7-2.7h5l.1.1 2.3 4.1zM682 371.7l-.5 15.2 2.7 4.7-10.7.9-3.5 7.7 9.9 10.2.3 3.8 5.5-5.2 9.4.1 6.8-5.5 4-8.1 2-22.2 2.7-11.6-1.8-13.6-2.7-.8h-.1l-.1-.1-.6-3.3-4.5-3.2-5 3.8 3 3.2 4.7.4h.3l-.1.3-1 7.3-.1.2h-.2l-3.3.1.5 4.7v.2l-.1.1-4.8 3.2h-.2l-7.9.6-2 2.6 1.6 3 .1.3-.3.1-4 .9zM677.6 355.2l3.5 5.7-1.3 4.2 2.1 6.1 3.7-.8-1.5-3v-.1l.1-.1 2.1-2.8.1-.1h.1l7.9-.6 4.7-3.1-.5-4.8-.1-.2h.3l3.4-.2 1-6.9-4.5-.3h-.1l-.1-.1-3.2-3.5-.2-.2.2-.2 5.4-4 .1-.1.2.1 4.6 3.4h.1v.1l.7 3.2 2.4.7 1.2-15.4-1.7-4.8-7.6-15.4-2.5-3-2.2-10.9-1.5-3.6-.5-.6-5.7-2.3-2-2.3 1.7-3.4-4.1-1.7-8.8-1.6-6.8 3.5-2.3 10.3-2.9-3.6-3.3 4.2-2.7-8-5.7 3.5-4.9-.8.3-4.5 6.3-15.7 1.5-15.7 1.8-7.5-1.5-6.3 2.1-5.6-.9-6 13.1-12.9 4.2.7.4-1.5-1.2-1.8 1.9-1.3-2.3-3.9h-4.5l-3.8 2.8-.3.2-.1-.3-1.8-3.7-.1-.1.1-.1 2.2-4-1-5-9-2.9-4.1 2.7-1 3.6-.1.2h-.1l-5.5.8-1.5 2.8-.1.1h-.1l-4.7 1h-.2l-7-2.4-1.8 2.4 3.6 9.8v.1l-2.6 9.3 3.9 2.8h.1v.1l2.3 8 .1.2-.2.1-3 1.4.2 3.7v.1l-1.4 3.9-.1.1h-.1l-6 .4-.4 4.6v.1l-.1.1-10.1 3.8v11.799999999999999l-.1.1-2.3 2.7 5.1 3.5.2.1-.1.2-2.8 5.4 5.2 3.3.1.1v.1l1.2 3 .1.2-.1.1-2.8 3 2 5.6 8.2-4.3.1-.1.2.2 2.7 2.9.1.1-.1.2-4 8.7.4 4.2v.1l-.1.1-3 1.7.2 3.5h6.9v.1l3.1 4.6 3.4-.2 5.5-5.1.9-3.7v-.2h4.3l1.3-2.6.1-.1h.2l2.9.4.1.1.1.1 2.7 8.3v.2l-.1.1-1.8 1.8h-.1l-6.7 1.1 1.7 3.5.1.2-.1.1-2.7 2.9-.7 3.7v.2l-3.9 4.5 1.6 2.1.2.2-.2.1-2.6 3.5v4.3l7.1 3.5v.1l5.7 7.9 3.6-3.4h.2l7.6.1h.1l3.4 2.8 10.2-3.5.4-.1-.1.4-1.1 4.3zM648.8 362.3l3.9 6.2 4.1 3.6 8.9-4.3 1.2-3.6 6.6-7.5 3.7-1.6.9-3.9-9.9 3.4h-.1l-.1-.1-3.4-2.7-7.5-.2-3.6 3.5-4.7 7.2zM577.7 339.1l8.9-4.5 6.8 2.3 8.2-1.3 12 11.9 14.9 15.4 5.9-2.4 3.6 1.7 2.7-1.3 4.9 1.6 2.7-.4 4.7-7.1-5.7-7.9-7.2-3.6-.1-.1v-4.699999999999999l.1-.1 2.5-3.4-1.6-2.1-.2-.2.2-.1 4-4.7.6-3.8h.1v-.1l2.6-2.8-1.7-3.7-.2-.3h.3l6.9-1.1 1.7-1.7-2.6-8-2.6-.4-1.3 2.5-.1.2h-4.199999999999999l-.9 3.6v.1l-5.7 5.2v.1h-.1l-3.6.2h-.1l-.1-.1-3.1-4.6h-7.1v-.3l-.2-3.8v-.1l.1-.1 3-1.7-.4-4.1v-.2l4-8.6-2.5-2.7-16.5 8.6.4 2.6v.2h-.2l-3.5 1.4h-.2l-3.1-.7-10.7 4.9-.1.1-.1-.1-2.6-2.1-7.8 2.8-.1.1-.1-.1-4-3.1-6.1-.2-2.6 2.6-.2.2-.2-.2-2.7-2.5-1.9 1.6-.1.1-.2-.1-3.5-2.8-4.3 1.7-4.2 2.8 5.3 3.5.2.2-.1.2-1.6 2.2 2.4 2.5 4.5-2.5.2-.1.1.2 2.1 3.8 3.5-.8.2-.1.1.3.5 6.7 3.4 2 .3.1-.2.2-1.9 2.8 5.5 8.3zM694.5 294.5l-.2-.4 7.7 4.2 2.5 6.5 3.8 4.8 4.5 7.3 3.3 5.4 3.8 2.9 1.2 3.3 1 3.1 4.7 2.2.7 4.7 4.8 6.1.4-5.3-.7-4.1 3.8-.3 1.4-.6 3.6 1.8-2.9-6h-4.2l-4.4-1.9-5.1-3.7-3.3-8.4-1.8-5.3 3.9-2.2 7.3-.4-16.4-11.1-11.6-10.5-5.4-10-7.3-5.1-3.4-4.3-2.3 1-.6 2.5 4.3 3 2.4 3.6-1.3 1.6-2.1-.5-.7 3 4.2 3.2 4.2 9.5-.3-.2.5.6zM70.1 236.8l1 2.1-.1 4.8 3.3 1.8 2.4 1.5 2.2-1.5.1-.1h.1l3.3.2 3.6-2.2.4-2.6v-.3h.2l4 .6 2.1-.7h.2l.1.1 1.5 3.2 3.5 1.2.8-.7.3-3.9-2.3-1.7-.1-.1v-.1l-.2-2.5-1.4-1.4-2.2-1.6h-.1v-.2l.3-3.8-4.4-3.4-.1-.1v-.1l-.4-2.6-1.7-.7-.1-.1v-1.8l-.7-1.2-2.5-.1-.4 1v.1h-.2l-1 .2h-.1l-.1-.1-.7-.8h-1.1l-1.6 1.5v2.9000000000000004l-1 1.3.8.6.1.1v.1l.1 1.4v.2h-.2l-1.8-.1-.8 1.3.5 2.4v.2l-5.6 5.7zM61.5 210.4l-1.8 2.4-1 1.4.4 2 2 .9-.3 3 5 3.1.1 5.8 3.9 7.4 5.4-5.5-.5-2.4v-.1l.1-.1.8-1.4.1-.2h.1l1.7.1-.1-1-.9-.7-.2-.1.2-.2 1-1.5v-2.7l-3.6-3.6-3.5-.8h-.1l-2.6-1.7v-.1l-.1-.1-.6-2.1-1.3-.2-1.3.7-.1.1-.1-.1-2.7-2.3zM65 197.7l-2.2 1-1.1 2.1-1.5.4-.2 2.6 2.3 1.3-.6 4.8 2.7 2.3 1.2-.7h.1l1.5.3h.2v.1l.7 2.2 2.4 1.6 3.6.8h.1v.1l3.6 3.6 1.6-1.4v-.1h1.5000000000000002l.1.1.7.8.7-.1.4-1-1.6-2.1v-.2l-.2-2.1-1.7-.5-.1-.1h-.1l-.5-1.1v-1.9l-.8-1.1v-3.9l-5.7-7.5-7.1-.3zM73 180.3l-3.6-.3-2.6-2.5.3-2.3-2.5-.5-1.4 3.5-5.2 4.4.4 2.9 2.7-.1 2.1 1.7.8 3.6 2.3-.3 2.8.6v1.8l-3.5 4.5 6.5.2 8.1-5.9-.7-1v-1.5000000000000002l.1-.1.9-1h.1l1.3-.8-.1-1.1-1.7-.1-.8.7-.2.1-.1-.1-1.4-.8h-.1v-.1l-.9-1.7-.1-.1v-1.7000000000000002l.8-1.5-3.8-.2h-.1v-.1l-.4-.2zM84.4 158.2l-.6 1-4.3 2.5-2.2 3.6-2.4 4.8-.2 3.9.6 2.3-1.7 2.1-.1 1.7h.1l4.1.3 1.7-.8h.1l3.2.1 1.8-1.7h.2l2.4.1h.1l.1.2 1 3.5.9-.6h.1l1.8.3h.1l.1.1.9 1.2 4.6-.4 2.8-1.8 3.1-4.5.1-1-2.1-2.6-.1-.1-.3-2.4-5.2-.9h-.1v-.1l-2.5-1.8h-.1v-.1l-3.4-6.3-1-2.5-1-.6-2.1.6h-.1l-.4-.1zM72.5 197.8l5.7 7.4.1.1v3.9l.8 1v2l.4 1 1.8.5 2.6.1.8-1.4v-.1h.1l5-4 .5-4.1-2.2-2v-.1l-1.1-2.4h-.1v-.1l.2-4.1-6.6-3.5-8 5.8zM90 208.7l-4.9 4-.9 1.5v.1h-.2l-2.5-.1.1 1.9 1.6 2.2 2.7.1h.1l.1.2.7 1.3.1.1v1.6l1.6.8h.1v.1l.5 2.7 4.2 3.3 2.1-1 .6-1.3-.4-2.1-.6-1.2v-.1l.1-.1.8-1.6.1-.1h.1l3.6-1.7 2.2-2v-2.4l-.5-1.6-1.9-1.5h-.1v-.1l-.6-1.7-1.9-.2-2.8 1.4h-.2l-2-.2h-.1l-.1-.1-1.7-2.2zM102.4 217.1l-.1.3v.2l-2.3 2.1-3.7 1.7-.8 1.4.6 1.2.4 2.2v.1l-.1.1-.6 1.4v.1h-.1l-2.2 1-.2 3.7 2.1 1.6 1.5 1.4.1.1v.1l.2 2.5 2.2 1.6 3.2-.5 6.4-3.3.8-1.2.1-5.3.6-3.7v-.1l2.9-3.3-2.3-2.5-1.3.9h-.1l-1.2.3-.1.1v-.1l-1.8-1-.1-.1-1.6-2.9-2.5-.1zM87.6 195.5l-.2 4.1 1.1 2.3 2.2 2 .1.1v.1l-.6 4.2 1.8 2.2 1.9.2 2.9-1.4h.1l1.9.2.1-1.1.1-.1 1.3-1.8 2.6-2.8v-1.8l.1-.1 1.5-1.6-.3-3.2-1.9-1.1v-.1h-.1l-.8-1.7-4 .2-.9 1.1-.2.2-.1-.1-3.5-2.1-1-.3-4.1 2.4zM103.2 204l-2.5 2.8-1.3 1.8-.2 1.1.6 1.8 2 1.5.1.1.5 1.7v1.8l2.7.1h.1l.1.1 1.6 3 1.6.9 1-.3 1.5-.9.2-.1.1.1 2.5 2.8 1.7.6 1.5-.1 5-4.5 2.7-1.8-.6-1.7-1.1-2.8-5.1-8.6-3.1-.2-1.1 1-.1.1-.2-.1-1.2-.8-1.3-.9-.6.5v.1h-.1l-2.1.5-.1.1-.1-.1-1.2-.5-.9.8h-.1l-2.5.1zM101.4 193.6l.8-.9 1.2-1.8v-4l-1.9-1-.1-.1-1.4-2.3-.4-2.3-2.6 1.6h-.1l-4.8.5h-.2l-.1-.1-.9-1.3-1.5-.2-1.1.6-.3.2-.1-.3-1-3.6-2.2-.1-1.7 1.6-.1.1h-.1l-3.3-.1-1.6.7-.9 1.7v1.4l.9 1.6 1.2.7.8-.6.1-.1h.1l1.9.1.2.1v.1l.2 1.5.1.1-.2.1-1.5.9-.8.9v1.1l.7 1.1 6.6 3.5 4.3-2.4.1-.1.1.1 1.1.3 3.3 2 .9-1 .1-.1h.1l4.1-.2zM100 180.8l.4 2.5 1.4 2.2 1.9 1.1h.2v4.5l-.1.1-1.2 1.7-.8 1 .8 1.6 2 1.2.1.1v.1l.3 3.4v.1l-.1.1-1.5 1.6v1.5l2.2-.2.9-.8.1-.1.1.1 1.3.5 2.1-.5.7-.5.1-.2.2.1 1.3 1 1.1.7 1-.9.1-.1h.1l3.2.2 1.2-1.9.9-2.3-.8-.7v-.1l-1.5-1.8v-.1l-1.2-3.5v-.2l.8-2.5.1-.1 2.7-3.1 1.6-1.5.4-1.9-2.1-2.5-5 .1h-.1l-.1-.1-5.5-3.5-.1-.1v-.1l.1-2.1-.6-.4-.6.6-.1.1-4.8.6v.5l-.1.1-3.1 4.4zM121.7 185.7l-1.3 1.2-2.6 3.1-.8 2.4 1.1 3.4 1.4 1.8.9.8.1.1v.2l-.9 2.5v.1l-1.3 1.8 5 8.5 3.5-2.1.1-.1 4.5-.1 4.8-2.9-1-2.9-4.7-6.1-2.4-1h-.1v-.1l-1.8-1.9-.1-.2.1-.1 1.3-1.8.6-2.2-1.1-1.1-2.4 1.9-.2.2-.2-.2-2.2-2.4-.1-.1v-.1l-.2-2.6zM128.2 189.5l.3.3.1.1v.1l-.6 2.5h-.1l-1.2 1.7 1.6 1.8 2.4 1h.1v.1l4.8 6.1v.1h.1l1 2.9 1.5-.3 1.2-1.7.1-.1h.1l2.9-.2h.1l.1.1 1.1 1 1.8-1 .6-6.3-2.9-1.6-.1-.1v-.1l-.2-2.6-1.3-1.2-2.1.7h-.2l-7-3.8-4.2.5zM135.3 190.1l4.2 2.2 2.2-.7.1-.1.1.1 1.5 1.4h.1v.1l.1 2.6 2.9 1.6.2.1v.1l-.6 6.4 8.7.1 1-.7.1-.1h.1l2.8.1h.2v.2l.8 2.2 2.3 1h.1l2 2 3.1-3.2.1-.1h.1l7.8.2.1-4.9v-.1l.1-.1 1.5-1.6-1.7-1.7-4.1 1h-.2l-6.2-3.6v-.1h-.1l-3.7-6.9-5.6-3.4-8.6-.4-2.9 2-.1.1h-.1l-3.3.1-1 1.6h-.1l-4 2.5zM122.4 182.8l3.7-1.6-.5-1.8v-.1l1.1-6.2.1-.2h.2l3.2.2 4-3.9-.5-4.7h-3.9l-.1.3-.3-.3-4.4-3.9-2.6.1-.1.1-.1-.1-3.1-2.6-.1-.1-.5-2.3-2.3-1.6-.9.6-.4 2.1v.3l-.2-.1-5.8-.4-.1-.1-1.9-1.7-5.6-1.5h-.1l-3-2.1v-.1l-1.6-1.5-1.5 1.5-.9 3.7v.1l-1.7 2.5v.1h-.1l-3.9.8 1 2.3 3.3 6.2 2.4 1.8 5.4 1h.2v.2l.3 2.4 2.2 2.6v.5l4.5-.6.6-.6.2-.1h.1l1 .5.1.1v.1l-.1 2.2 5.3 3.4 5.1-.1h.1l.1.1 2.1 2.5zM146.3 183.5l-3.1-3-.1-.1v-.2l1.2-4.4-2.3-2.9-2 .1h-.2l-5.3-3.4-4 3.9-.1.1h-.1l-3.1-.2-1.1 6 .5 1.8.1.2-.2.1-3.9 1.8-.4 1.9.2 3 2 2.2 2.4-2 .2-.1.2.2.6.6 4.6-.6h.1v.1l2.3 1.2 4.2-2.6 1-1.6.1-.1h.1l3.4-.1 2.7-1.9zM140.5 276.9l-.2 3 1.6 3.7 1.8-.3 1.3-1.2 2.8 1.3-.2 1.8-.7 1.7.9 1.1 2.6.9 1 3.6 1.1 4.6-1.2 2.9 1.2 2.3 3-1.8 1.3.4.9 1.9.6 3.4 2 1.5 2.3-1.6 2.3.1 4.1 1.9-.1 1.9.9 1.6 2.1.4 1.7-1.9 1.8 1.9 2.4 1.4-.5 3.7.5 2.1 2.3 2.6 2 .6 2-1.2 1.5.6 1.2 2.3 4.8 1.6 2.1-1.6 2.1-3-3.7-8.1-.3-.2h-.1v-.1l-.8-2.4-.1-.2.2-.1 2-1.6.4-1.4-.9-2.2-5.2-1.6-2.4.7-1.3 2.9v.2h-.2l-3.1-.3-.1-.1h-.1l-2.8-2.9-5.3-1.2h-.1l-.1-.1-1.1-2.2-.1-.2.1-.1 2.1-2.2-1.3-1.3-.1-.1v-.1l.1-1.4v-.2h.2l1.9-.6.2-3.2-2.7.2-1.3.8-.4.3v-.4l-.5-3.8v-.2l.2-.1 1.2-.5.1-2.2-1.2-1.4-.1-.1v-.1l.2-5.3-1.5-2.1v-7.199999999999999l-1.5-3.2v-.1l.7-2.9-1.9-2.1-.1.3v.1l-.9 3.2h-.1l-.7 1.4v.1h-.1l-5.6 3.1-1.3 2.6-.1.1h-.1l-3.8 1.2-2 .3-3.9 3.4-.1.1-5.7.4-.1.2zM113 274.6l2.5 2.4-.2 2.6-.7 2.1 1.4 2.6 2.9-1.3 1.5-2.9 1.7-1.8 4 .8 2.2-1.8 1.6-.2 1.2.9 4-.2 3-.8 2-.5.1-.1.1-1.8-.2-1.5-2-2.9v-.1l.3-3.5-2.3-2.8v-.1l-.9-3.3-.1-1.9-1.9-.6-5.5-3-.2-.1v-3.1l-5.5-.9v-.1l-5.8-3.3-.1-.1v-2l-.8-1.4-2.8-.3h-.1l-.1-.1-4.1-6.5-5.4 2.8h-.1l-3.2.6-.2 4v.1h-.1l-.9.8.3 3.1 1.6 2.2 2.5.5h.1v.1l4.4 4.2.1.1v3.4000000000000004l-.1.1-1.9 2.2-.1 2.1 1.5.1 1.8-.8.4-.1v.3l.1 3.6 1.1 1.6 2.6.5h.2v.2l.1 5.9zM135.6 258.5l.1 1.8.8 3.2 2.3 2.9h.1v.1l-.3 3.5 1.9 2.9h.1v.1l.2 1.6-.1 1.6 5.4-.4 3.9-3.4.1-.1h.1l2-.3 3.7-1.1 1.3-2.6h.1v-.1l5.6-3.1.7-1.3 1-3.2.3-1.4-2.8-4-1.1-1.1-1.3.9h-.1l-1.1.2-.2.1-.1-.2-2.2-3.2-.7.5-2.8 3h-.1l-1.6 1-.1.1-.1-.1-2.1-.5h-.1l-3.2-2.9-2.2-1.6-2 .3-3.3.4-1.3 1.9-.1.8 1.1.5.1.1v.2l-.4 2.1v.2h-.1l-1.4.6zM127.9 251.6l.1 3 5.4 2.9 1.9.6 1.4-.6.3-1.8-1-.6h-.2v-.2l.1-1v-.2l1.5-2v-.1h.1l3.5-.4 2.1-.3h.1v.1l2.3 1.6v.1l3.2 2.8 1.9.4 1.6-.9 2.8-2.9v-.1l.7-.5-2.1-2.6-.1-.1.1-.2.9-1-.2-2.2-4.2-.3h-.1l-.1-.1-2.4-3.4-3-.2h-.1l-.1-.1-1.1-2.8-3.3-3.9-.5.5-.5 3h-.1v.1l-.7 1.1-.1.1h-.2l-5.1-1.8v5.3999999999999995l-1.1 1.3.9 1.8.1.1v.1l-.5 1.3v.1l-4.2 3.9zM116.9 223.3l-1.4.1h-.1v-.1l-1.6-.5-2.8 3.3-.6 3.5-.1 5.4v.1l-.1.1-.8 1.2h-.1v.1l-.7.3 4.1 6.3 2.8.3h.1v.1l.9 1.6h.1v1.9000000000000001l5.6 3.3 5.4.9 4.1-3.8.4-1.1-1-2-.1-.1.1-.1 1.1-1.3v-5.3l-1.9-.1h-.1l-.1-.2-1.4-2.9-3.1-.6-1 .9-.3.2-.1-.2-1.9-3.3h-.1v-.1l-.3-3.6h-3.4l-.1-.1-1.5-4.2zM124.9 216.9l-2.6 1.8-4.9 4.4 1.4 4.1h3.6v.2l.3 3.7 1.8 3 .9-.8.1-.1h.1l3.3.6h.2v.2l1.4 2.9 1.7.1v-.1l.4.1 5.2 1.9.6-1 .6-2.9v-.1l.7-.8 1.1-1.8v-1.3l-1.4-.8-.1-.1v-.1l-.2-1.5-.9-.5-.5.7-.1.1h-.1l-3.5.2-.4 1-.1.1h-.2l-1.8-.3h-.1v-.1l-1.9-3.5v-.1l-.5-5.2-4.1-4zM141.3 231v1.4h-.1v.1l-1 1.7 3.4 4v.1l.5 1.2 2.5-.7h.1l3.3-.5.3-2.6.1-.1h.1l1.7-1 3.5-.9.3-2.8-.9-5.1-6.5-2.1-3.8 1.1-.3 3.8v.1l-.1.1-3.1 2.2zM123.6 212l.9 2.6.7 1.8 4.2 4.3v.1l.6 5.2 1.7 3.4 1.5.2.4-.9.1-.2h.1l3.6-.1.5-.9.1-.2.2.1 1.2.7h.1v.2l.2 1.5 1.4.8 2.9-2.1.4-4v-.1l.1-.1 3.8-1 .2-5.7v-.2h.2l3.5-.2 1.8-1.5.1-.1.2.1 3.7 2.3 2.9-4 .1-.2.2.1 3.5 2.5 2.4-1.1 1.1-1.2-2.1-2.7-4.2-4.3-2.4-1-.1-.1v-.1l-.8-2.1-2.6-.1-1 .7-.1.1h-.1l-8.9-.1-2 1.2h-.2l-.1-.1-1.2-1.1-2.7.2-1.1 1.6-.1.1h-.1l-1.8.4-5 3-.1.1h-.1l-4.4.1-3.4 2.1zM157.8 218.5l-3.6-2.3-1.8 1.4-.1.1-3.3.1-.2 5.5 6.6 2.1h.1v.2l1 5.2v.1l-.3 2.6 1.7-.7h.1l5.5-.7v-.1l.1.1 3.9 1.2h.1v.1l1.2 2 2-1.8-.1-4.4-.9-2.1-2.7-3-6.8-1.2h-.1l-1.6-1.3-.1-.1-.7-3zM170.8 234.2l-1.9 1.8-.2.2-.1-.3-1.4-2.2-3.7-1.2-5.4.8-2 .8h-.1l-3.6.9-1.6.9-.4 2.7v.2h-.2l-3.5.4-2.4.7.4 1 3 .2h.1l.1.1 2.4 3.4 4.3.3h.2v.2l.2 2.6v.1l-.9 1 2 2.4.1.2 2.3 3.3 1-.2 1.3-.9.2-.1.1.1 1.4 1.2v.1l2.9 4.1v.2l-.2.6 2.2 2.5.1.1v.1l-.7 2.9 1.4 3h.6l.8-1.9 1.1-2.4.1-.1h2l.1.1 2.4 1.5.5-.8-.4-2.7-1.7-1.7-.1-.1v-.1l.4-2.6.1-.3h.2l4.4.6 3.6-1.2.5-2.9-1.3-.2-.1-.1-.9-1-.1-.2.2-.2 1.9-1.4.1-.6-1.7-.2h-.1l-.1-.2-.2-1.1v-.1l1-1.7-.6-.5-3.2 1.7-.1.1h-.1l-3.8-.8h-.1l-.1-.1-1.6-2.6-1-3.2-.1-7.2zM171.9 242.9l.5 1.5 1.5 2.5 3.6.7 3.3-1.8.1-.1.1.1.9.7.2.1-.1.2-1 1.8.2.8 1.7.3h.2v.2l-.1 1-.1.1v.1l-1.8 1.3.6.7 1.4.2h2.3l2.3-2.1v-5.5l.3.1 2.1.1 2.2-2.4 1.3-3.5v-.1h.1l2.1-2.3 2.4-6.2-1.2-1h-.1l-1.4-1.6-1.9.3h-.1l-.1-.1-2.6-2.3-3.9-.2-.1 1.4-.2 1.9v.1l-.1.1-2.8 2.3-.1.1h-.1l-2.3-1.1-1.7-.1-1.8 6.4v.2h-.2l-3.8.6-1.8 4.5zM188 251.6l-2.4 2.1v.1h-2.3000000000000003l-.5 3.1v.2h-.2l-3.8 1.2v.1h-.1l-4.2-.5-.4 2.3 1.7 1.6.1.1v.1l.4 2.8v.2l-.8 1-.1.2-.2-.1-2.5-1.6h-1.6l-1 2.2-.9 2-.1.2h-.8v6.8l1.4 2.1h.1v.1l-.2 5.3 1.3 1.4v.2l-.1 2.5v.2h-.2l-1.2.5.4 3.2 1.1-.7h.1l3-.2h.3v.3l-.3 3.6v.2l-.1.1-1.9.5-.1 1.1 1.4 1.5.2.1-.2.2-2.1 2.2 1 2 5.2 1.2h.2l2.8 2.9 2.8.3 1.3-2.9v-.1l.1-.1 2.5-.6.3-2.2.3-2.3.1-.2h.1l3.1-.7.4-2.5v-.1l2.6-4.4v-.1h.1l4.3-2.5h.30000000000000004l2.1 1.2h1.1l.8-2.8v-.2h.1l2.2-.7 1.2-.9-1.7-1.8-1 .5-1.6.8v.1l-.1-.1-7-2.2v-.1l-1.6-1.3h-.1v-.1l-1.8-4.1-.1-.1v-.1l.9-2.4v-.1h.1l3.3-2v-.1l.1.1 1.8.1h.1l.1.1 1.5 1.9v.2l.1 3.1 1.3 1.1 1.7-.8h.1l1.6.1h.1v.1l1.1.7v.1l2.5 2.3 1.1-.6.8-1.6-1.5-2v-.1l-.2-1.6v-.2l1.6-2.9.3-2.4-1.3-.2-4.5-2h-.1l-1.9-1.6-.1-.1-.7-2.1-1.8.5h-.2l-.1-.1-.8-1.2v-.1l-.3-2-.3-1.2-2.1-.5h-.1l-.1-.2-.2-2.7-4.8-.2h-.2v-3.8000000000000003l-2.1.1zM202.8 210.3l-3.2 1.4-.1.1-.1-.1-9.1-3.5-3.1 3.5-.2.2-.2-.2-1.4-1.2h-.1v-5.6l-.8-1.8v-.2l.1-.1 7.3-8.2-.3-3.5-2.1-2.6-2.9.5-4.1 2.7h-.2l-3.7-.1-.5 1.3 2.6 2.5.2.1-.2.2-3.2 3.3-1.6 1.8-.2 5v.3l-.2-.1-7.9-.1-3.1 3.2 2 2 2.2 2.8.1.2-.1.2-1.3 1.4v.1l-2.6 1.1-.2.1-.1-.1-3.4-2.5-2.8 4 .6 2.9 1.5 1.2 6.9 1.2h.1v.1l2.8 3v.1l.9 2.2h.1v.1l.1 4.5v.1l.1 7.5.3.9 1.6-4.1v-.2h.2l3.8-.6 1.8-6.4v-.2h.2l2 .1.1.1 2.1 1 2.6-2.2.3-1.8v-1.9000000000000001h.3l4.3.2.1.1 2.5 2.3 1.9-.3.2-.1.1.1 1.5 1.8 1.2.9 2-2.3 1.5-2.1-1.8-1.5v-2.9000000000000004l.1-.1 6.8-2.8-.3-3.7-4-5.3zM353.7 137.7l1.8.2.4-1.3-1.2-1.3-1.5.5.5 1.9zM359.5 147l2.2.8 2.2-.4-.9-3.3-2.7 1.5-.8 1.4zM364.6 148.7l-2.6.1-1.3 4.7-4.3-3.9-1.2 4 4.5 5 .3 4.3-8.3-7.4-.3-4.7 3.5-4.3.5-7-1.4.7-1.7 4.7-2.6 2.3-2.7.8-2.7 3.9.2 10.4-6.4 10 .4 6.1h6.5l5.4 6.4v6.2l-3.8 4.5 1 2.1 3 1.7-5.6 1.3-1.6-5.8 4.2-7.4-1.8-5.4-6.4-1-3.5 3.4-.4 7.7-5.9 6-5.4 2-3.6 3.9-12.3-7.5v-3.7l8.2 3.8 4.4-1.7 6.9-4.5 4.7-9.4-.8-5 7.9-19 1-3.2-1-4.3 5.3-5 1-6.9-4-5.4 4.1-.5-.6-5.1-4.1-.3-.3 3.7.9 2.2-2.6-1-4 3-4.7 6-3.6 3.5-5.5 1.3-2.9 2.8 2.9 3.7-3.1 5.7-4.3 1.3-.2 1.9 3.8 3.9-1.3 3.7.7 2.3 1.4 2.1-4.8 4.5-1.6-2.5-1.3-5.6-5.1-8.2-2.9 2.4 1.7 3.1.1.1-.1.1-3.6 6.4 1.4 4.5v.2l-2.2 3.4-.1.1h-.1l-3.5 1.2-2.4 2.8-.1.1h-.1l-9 .4-4.5 3.7-.1.1h-.1l-2.9.1-.3 7.6v.1l-3.6 5 2.3 4.8 8.7.6h.1v.1l4.1 3.2.1.1v.1l.2 4.1 1.4 1.4 9.9.5h.1l.1.1 3.1 3.9v.1l.3 6.3 1.7 2.2v.2l-.1 4.1h6.699999999999999v.1l6 5.4 8.2 3.6h.1v.1l3.1 5 5.3 3.3 5.5.5 4.4-3.3.2-.1.1.2 4.1 3.7 4.2-.1h.1l.1.1 3.1 4.6 1.6.1h.1l.1.1 3 3 6.2-7.9.4-5.1v-.1l4.1-5.7-.7-4.6-4.7-3.5-.1-.1v-.1l1.2-6.7-3.1-4.3h-.1v-.1l1-9.3-3.9-5.1-.1-.1v-.1l1.6-4.7-1.5-3.7-.2-.2.3-.1 5.1-1.4 2.1-5.4-1.1-6.4-5.3-1.3h-.1v-.1l-4.9-6.4-.1-.1.1-.1.9-3.9.1-.1h.1l7.2-3.3.8-2.9-3.1-6.5v-.2l.8-4.2v-.2h.2l3.1-.5-2.9-6.4h-.1v-.5zM255.8 304.1l3.7-.1 3 5.1 2.4.4.1-.1.8-2.1v-.1h.1l4.2-4 .7-3.1v-.1h.1l2.6-2.9v-.1l.2.1 3.2.6.8-1.3.6-2.3-.9-2.4-2.8-1.1h-.1v-.2l-.4-1.4-.1-.2.1-.1 1.3-1.5.4-4v-.1l.1-.1 4.6-4.5.2-.1.2.1 2.5 2.6.2.2-.1.1-1.4 2 1.8.4h.1l4.6 3.3 3.6-.5h.1l3.4 1.9 3.2.1 4.5-3-7.9-5.9h-.1v-.1l-3.8-7.4-2.8-6.3-2.2-.5-4.6-1.9-.1-.1-2.3-2.2-.7 1.8-.1.2h-.2l-3.6-.1-.9 1h-.1l-2.3 1.2-.1.1h-.1l-1.7-.4-1.2.9h-2.5l-3-1.3-1.2 2.4-.1.1h-.1l-4.1.8-2.7 4.6v.2h-.2l-7.3-.3-2.1 4.3.2 4.1v.2h-.2l-2 .6-.6 3.3 1.6 3.8v.1l.7 2.5 3.1 1h.1l2.9 2.6.1.1v.1l.1 2.7 4.2 3.7h.1v.1l.2 2.5zM221 299.6l7.3 1.7 4.2 2.6 2.5-2 3.6 2 12.3 2.3 4.4-2 .1-.1-.3-2.3-4.2-3.7-.1-.1v-.1l-.1-2.7-2.8-2.5-3.1-.9-.2-.1v-.1l-.7-2.7-1.7-3.9v-.2l.7-3.3-3.5-1.6-2.6 1.3h-.2l-.1-.1-2.1-2.7-4.6-1.6-5.1 1.6.3 1.4v.1l-.1 4.6v.2h-.1l-7 5.2-.2 2.6 5.3 3.1.2.1-.1.2-2 3.7zM192.1 312.4l1.5-2 4.9-.4.4-3.5 2.4-1.3 2.5.1 3 2.4 1.8-1.7-2.2-3.7-1.1-3.6 2.5-2.7 2.2-.6 3.4 3.6 7.1.5v-.1l1.9-3.5-5.1-3.1-.2-.1v-.1l.2-2.8v-.1l.1-.1 7-5.2.1-4.5-.6-3.2-1.9-1.8-1 .6h-.2l-1.8-.4-.1-.1-7.4-6.3-1.3.3-.4 2.5v.1l-1.5 2.9.2 1.4 1.5 2.1.1.1-.1.2-.9 1.8v.1h-.1l-1.3.8h-.2l-.1-.1-2.6-2.5-1-.7-1.5-.1-1.7.8h-.2l-.1-.1-1.5-1.2-.1-.1v-.1l-.1-3.2-1.3-1.7-1.7-.2-3.1 1.9-.8 2.3 1.8 4 1.5 1.2 6.8 2.2 1.5-.7 1.2-.6.1-.1.2.2 1.9 2 .2.2-.2.2-1.4 1.1-.1.1-2.1.6-.8 2.9-.1.1h-1.5000000000000002l-2.1-1.1-4.2 2.4-2.5 4.3-.4 2.6v.2h-.2l-3.1.7-.3 2.2-.3 2.1 5.1 1.6h.1l.1.1 1 2.3.1.1-.1.1-.5 1.6v.1l-.1.1-1.9 1.5.7 2.1zM244.2 217.8l-1.3 2.2-.9 2.1-4.2 5.6-6.3 6.2h-.1l-5.3 2.4-.1 2.4 1.7 3.3.1.1-.2.1-2.2 2.7-.4 3.5v.1h-.1l-1.4 1.9h-.1l-.1.1-5 .2-.7 3.1v.1l-.1.1-2.1 1.3-.2.2-.1-.2-2-2.2-2.8 4.4-.1.1h-.1l-4.6.5-3.9 4.6.7 2.2 1.8 1.5 4.4 1.9 1.5.2 1.5-.4h.1l.1.1 7.5 6.4 1.6.4 1.1-.6.2-.1.1.1 2.1 2 .1.1.2 1.4 5.2-1.6h.1l4.7 1.6.1.1 2 2.6 2.6-1.2.1-.1.1.1 3.6 1.7 1.9-.5-.1-4v-.1l2.1-4.4v-.2h.2l7.4.3 2.6-4.5-1.9-2.8-.1-.1v-.1l.3-2.7.7-4.9-5.1-3.2v-.1h-.1l-.8-2.3-.1-.1.1-.1 2.9-3.5-.6-3-1-5.3v-.1l.1-.1 2.4-3.4-.1-3.9-2.8-6.7-4.8-2.8h-.1v-.1l-.7-3.3-1.3-1.3zM276.7 189.3h-2.8l-4.1 3.6-.1.1h-.1l-3.6.2h-.2l-.1-.1-1.2-1.9-5.9 5.2-.9 3.5h-.1v.1l-6.3 5.6-6.9 11.7 1.5 1.5v.1h.1l.7 3.3 4.7 2.8h.1v.1l2.8 6.8h.1l.1 4.1v.1l-.1.1-2.4 3.3 1 5.2.6 3.1v.2l-2.9 3.5.8 2 5.1 3.3.1.1v.1l-.7 5.1-.3 2.6 1.9 2.8 3.9-.8 1.3-2.5.1-.2.2.1 3.1 1.3h2.2l1.1-.9h.2l1.9.4 2.1-1.2 1-1v-.1h.2l3.6.1.7-2 .2-.3.2.2 2.6 2.4 4.5 1.9 2.3.5.1.1.1.1 2.8 6.3 3.8 7.5 8 5.9 4.4-2.5.5-2.7v-.1h.1l2.7-1.7v-.1h.1l3.2.4 2.7-8.7v-.1l.1-.1 3.8-2.9.1-.1.2.1 4.1 1.2h.1l5.5 3.7 8.4.1h.1l.1.1 5.9 4.3 7-4.1.2-.1.1.1 3.6 2.6 4.2-.5 4.5-1.9.8-2.1-5.1-3-.1-.1v-6.5l-3.1-3.1-1.6-.1h-.2v-.1l-3.2-4.6-4.1.1h-.2l-3.9-3.8-4.4 3.3h-.2l-5.6-.5-.1-.1-5.4-3.3h-.1v-.1l-3-5-8.2-3.5-.1-.1-5.9-5.4h-7v-.2l.1-4.4-1.6-2.1-.1-.1v-.1l-.2-6.3-3-3.7-9.9-.6h-.1l-1.6-1.5h-.1v-.2l-.1-4.1-4-3.1-8.8-.6-.1-.1-.1-.1-2.4-5.1v-.1l.1-.1 3.5-5 .3-7.5zM106.5 133.9l-1.2.9-.7 1.9.2 6.1v.2l-.2.1-4.5 1.4-.3 2.1v.2h-.2l-1.5.2-.4 1.5-.1.1-.6.6 1.5 1.6 2.9 2.1 5.6 1.4.1.1 1.9 1.7 5.5.4.4-2v-.1l1.1-.8.2-.1.1.1 2.5 1.8h.1v.1l.6 2.3 3 2.5 2.6-.2h.1l.1.1 4 3.6.2-1.9-.7-2.3-1.8-2-.1-.1.1-.2 1.7-2.7-.3-3-1.6-3.2h-.1l.1-.1.4-2.2-1.6-.2-.1-.1-.1-.1-.3-1.5-2.8-.1h-.1l-.1-.1-.8-1.5-.1-.1.1-.1.7-1.3-.2-1.8-2.1-.7-.6.9-.1.1-.2-.1-1.4-.1h-.1l-.1-.1-1.4-1.3-2.4.3h-.2v-.1l-1.4-2.4-1.5-.7-2.7 1.3-.3.1-.1-.2-.7-2.3zM134.7 169.1l5.3 3.4 2.1-.1h.1l.1.1 2.5 3.1.1.1-.1.1-1.2 4.4 3.2 3.1 8.7.4h.1l5.7 3.5h.1v.1l3.7 6.9 6.1 3.5 4.1-1 .1-.1.1.1 1.8 1.8 2.9-3-2.6-2.4-.1-.1.1-.1.6-1.6.1-.2h.2l3.7.2 4.1-2.7v-2.8l-2.8-1.3-.2-.1.1-.2.9-2.4-2.6-.9-1.7.8-.2.1-.1-.2-2.1-5.2-5-.2h-.2l-3.2-3.7-3-1.9v-.1l-2.9-2.7h-.1l-8.5-9.7-.1-.1v-.1l.7-4.9v-.1l3.2-3.6-2.1-.7h-.2v-3.5h-2.5l-1.8 1.7v.1l-.1-.1-3.7-.1-.1-.1-1.7-1.8h-1.6l-2.4.8-3.9 2.9-2.5 5.3-.1.1h-.1l-4.2-.3-2.4 1.2-1.6 2.6 1.7 1.9.1.1.7 2.4v.1l-.2 2.1h4.3l.1.2.5 4.9zM105.8 121.9l-2.5.3-4.1 3.1-2.3 3.3-4.6-.3-2.8 4.6-3.2.4-.1 3.5-4.9 3.1.3 4.6 1.9 2.5-2.2 2.7.5 2.2 3.2.8.6 3.3-1 1.7.3.1 2-.6h.1l.1.1 1.1.5 4-.7 1.6-2.5.9-3.7v-.1l2.5-2.5.5-1.6v-.2h.2l1.4-.1.3-2.1v-.2h.2l4.5-1.5-.2-5.9v-.1h.1l.7-2v-.1h.1l1.4-1.2 1.5-4.5-1.9-3v-.1l-.2-3.8zM130.5 115.5l-4.3.2-5.3 1.9-.3 4.3.5 2-1.5 1.3-1.2-3-2.1-.2-3.3-3.1-4 2.6-2.7.3.1 3.8 2 3.1v.2l-1.5 4.6.7 2.2 2.5-1.2.2-.1.1.1 1.7.8h.1v.1l1.3 2.3 2.3-.3h.1l.1.1 1.5 1.3 1.3.2.6-.9.1-.2.2.1 2.4.8.2.1v.1l.2 2v.1h-.1l-.6 1.3.7 1.3h3v.2l.4 1.5 1.6.2.3.1-.1.2-.5 2.4 1.6 3.1.1.1.3 2.8 2.1-1.2h.1l4.1.3 2.5-5.2.1-.1 3.9-2.9h.1v-.1l2.5-.8 3.5.1 1.8-1.5-3.4-4.3-2.1-.4h-.1l-.1-.2-1-3.3-1.3.1-.2 2-.1.3h-.2l-1.1-.3h-.1v-.1l-.9-1.4-1 .3-.2 2.4v.3l-.2-.1-1.5-.3h-.1l-.1-.1-.8-1.8-4.1.1h-.2v-.1l-1.7-2.5h-4l-.1-.1-1-1.3-.2-.1.2-.2 6.6-8-.4-8.3zM188.1 99.2l1-6.7 1.6 2.3-.6 4.7 1.9 4.1.5 7 2.8 4.1.6 4.3 10.2 6.2 6.3-1.2 4.7-6.4 1.3-6.8-2.1-8.1.3-11.7-1.3-4.3-3.3-5.2-.5-4.1 1.4-.9 2 2.7 1.9-1.3-1.8-3.5-6.9-4.7-9.9-.9-2 1.4-5 2.9.2 3.9-3.4 5.5-6.7.1-2.2 2.8 4.9 6.5v.2l-.8 3.9 4.1 2 .1.1.7 1.1zM175.9 126.4l-.3-2.1.4-1.9-1.7-2.3 1.5-2.9 4.9-6 4-1.3 2.4-4 .8-5.9-.9-1.6-4.1-2.1-.2-.1v-.2l.8-3.9-4.7-6.3-5.6 7-2.9-.1-3.6 2.5-2.6-.2-1.1 2.6-1.1 2.3-2.1 1.5 1.1 2.2-1.4 1.5-4.8-.8-1.3 4.6-.9 6.9-2.9 1.2-12.8-1.7-5.8.2.2 3.7 3.1-.6h.1l4.1.6h.1l.1.1 1.6 2.3h.1v.1l-.1 2.9v.1h-.1l-1.4 1.7.2 3.2-.4 2.8-.1.1v.1l-2.1 1.6-.6 1.5.8 1.7 1.1.3.1-2.3v-.2h.2l1.4-.4.2-.1.1.2.8 1.5.7.1.2-1.9.1-.2h.2l1.7-.2h.2v.2l1.1 3.4 2 .3.1.1h.1l3.2 4.3.5-1.4-.3-4v-.1l1.5-2.9v-.1l5.4-5.7.1-.1h.1l3.1.7.1.1.1.1 1 1.8v.1l-.5 3.1v.1l-.1.1-2.3 2.2-3.9 4.4-1 3.7h2.8000000000000003v3.6l2.1.7 1.5-1.6.1-.1h2l.8-3.5v-.1l.1-.1 3.5-3.7-.8-1.4v-.1l-1.2-1.9v-.2l.8-2.9.1-.1 3.5-3.5.3-1.8v-.3l.3.1 2.4.6 1.5.3 1.8-2h.1v-.1l.3-.1zM230.9 152.8l-4.9 6.3 1.7 2.6.1.1-.1.1-1.1 2 .8 3.3.1.2-.2.1-3 1.8h-.30000000000000004l-4-2.6-3.8.2h-.2v-.2l-.6-2.8-9.6-7.4-1.1 1.6 2.7 4.4v.2l-.8 3.7-.1.1-2.2 2.3 1 1.8v.1l.2 1.9v.2l-.2.1-3.8.1-3 3.9-.1 2.3 3.5 1.5 1.5-1.8h.1l.1-.1 3.3-1.1.2-.1.1.2 2.1 4.2.1.2-.1.1-7.9 6.3-.1 3.4v.1l-.1.1-2.8 2.1-.1.1-.1-.1-3.4-1.4-2.5 2-7.2 8.1.7 1.7v5.5l1.2 1 3-3.4.1-.2.2.1 9.2 3.6 3.2-1.5 1.8-4.5.1-.1h.1l6.2.6h.1l4.5 5.1 5 2.6 6.9.8 2.8-1.5.1-.1.2.1 7.5 6.1 4.6.7 8.3-14.3.1-.1 6.2-5.5 1-3.5v-.1l6.2-5.5.2-.2.2.3 1.3 2 3.4-.2 4.1-3.6.1-.1h.1l6.2-.1 4.6-3.8h.1l9-.4 2.3-2.7.1-.1h.1l3.5-1.2 2.1-3.3-1.4-4.5v-.2l1.7-2.9-1.7-.3-1.2 1.7v.1h-2.3000000000000003l-2.7 2.5-.1.1h-.1l-3.3-.8-2.5 2.9-.1.1h-.1l-7.5.6h-.1l-32.4-23.1-3.1.9v.1h-.1l-13.9-1.6zM181.5 117.4l1 1.1 1.4-.9-.4-1.6-1.1-.8-.8 1.1-.1 1.1zM278.6 121l1.6-1.2v-2.8l-1.9-.4.3 4.4zM305.5 160.2l-2.5-4.6-6.6-7.1h-4.9l-.7 2.9-.1 4.3-3.5 2.1-2-.4-1.3 2-2.5-2 2.9-2.6v-2.9l-9.3-.1-4.5-3.4-7.1.7-2.5-3.4 4.2-.4 2.2-4.3-5.6-1.3-2.6 3.1-1.3-2.3-14.4-3.6-1.8 1.9-2.1-2-7.5 4.4-4-3.8 1.2-3.3-1.2-3.4 4.7-1.6 4.3 3 2.1-3.4-.1-6.1-5.7-6.3-1.7 6.1-7.9 5.1-.6 3.9-3.8 3.4 1.5 7.9 4.1 6.1 3.8.5h.1l.1.1 2 3 13.9 1.5 3.2-1 .1-.1.1.1 32.4 23.1 7.2-.6 2.6-2.9.1-.1h.1l3.3.8 2.8-2.5v-.1h2.2l1.2-1.7v-.1h.2l2 .4 1.7-3-1.7-3.1-.1-.2.1-.1 3.2-2.6zM294 146.6l-2.9.3-2.3-3.8.6-3.5 3.7-.9 1 4-.1 3.9zM249.2 128.7l2.2 2.9 5.3.2.6-2-.3-3-2.8-3-4 1.4-1 3.5zM288.5 132.6l1.2-11.6.9-4.4 3.8-4.1 4.6-1.6 1.9-2.6-1.1-3.2 3.3 2.2 3.1-.3.8-2.3 1.9.1.2-2.3 2.4 1 .5-2.3 1.8 1.9 1.4-1.8.5-2.7 2.5 1.8 1.7-1.5 3.5.7 2.9-3.3 22.3-.5 5.4-2.9.6-3.9-2.3-2.8-5.4 1.4-.9 2-9.1-.8-4-3.4-3.5 2-3.5-1.5-4.4 2.9h-3.7l-1.8 1.5-2.5-2.6-1.2 5.4-2.8.1-.3 2.2-6.8 2.1-2.5-1.1-1.5 1.9 2 1.9-2.8 2.6-4.4-1.8-.6 3.4-3.2-.2-.1 2.6-4.5 2.3-2.7-.9-3.1 2.3-.1 3.3 2.9 2.9.1 4.5-2.7 2.7 2.1 4.7 2.5.3.1 2.2 2.8.6 1.8.9zM218.9 135.2l-3.9 3.6-1.8-3.4 2.6-.6-3.3-6.1-5 .8-4.9-1.7-6.1.9-3.4 8.5-2.5-1.4-3.5-8.3.5-6.4-5.8.7-1.5 5.5 2.4 3-2.3 3.1-3.8-2.1-.6-4.4-.2.1-1.9 2-.1.1h-.1l-1.6-.3-2.2-.6-.3 1.7v.1l-3.5 3.5-.8 2.8 1.1 1.8 1 1.6v.2l-.1.1-3.6 3.8-.8 3.7-.1.2h-2.2l-1.5 1.7-3.4 3.8-.6 4.6 8.5 9.6 2.9 2.8 3 1.9h.1l3.1 3.7 5.1.1h.2v.2l2 5.1 1.6-.7.1-.1v.1l3 .9.2.1-.1.2-.9 2.4 2.7 1.4h.2v3l2.7-.5h.2l.1.1 2.2 2.8h.1v.1l.3 3.3 2.2-1.9h.2l3.5 1.4 2.5-1.9.2-3.5v-.1l.1-.1 7.7-6.1-1.9-3.9-3.1 1.1-1.6 1.9-.1.1-.2-.1-3.9-1.6h-.1v-.2l.2-2.6v-.1l3.1-4.1v-.1h.2l3.6-.1-.2-1.7-1.1-1.8-.1-.2.2-.1 2.3-2.4.8-3.6-2.7-4.4-.1-.1.1-.2 1.3-1.9.2-.2.2.2 9.8 7.5.1.1v.1l.6 2.7 3.7-.2h.1v.1l3.9 2.5 2.8-1.6-.7-3.2-.1-.1.1-.1 1-2-1.7-2.6-.1-.2.2-.1 4.8-6.3-1.9-2.8-3.8-.5h-.1v-.1l-4.2-6.3v-.1h-.1l-1.4-7.6zM349.5 46.1l1.6 1.5 2.2-1.9-1.1-1.6-1.6.4-1.1 1.6zM353 47.4l1.2 1.1 2.2-1.2.6-2.5-1.7-.4-2.3 3zM358.8 47.1l2.1 2 4.3-2.2-.8-2.4-3-1.2-2.5 2.1-.1 1.7zM363.3 42.6l1.9.9 1.2-1.4-1.5-1.4-1.6 1.9zM371.3 37.5l.6 1.9 1.9-.7-.7-2.3-1.8 1.1zM365.3 32.8l1 .9 1.3-1-1.9-1.9-1 .8.6 1.2zM359.8 34l.3 1.5 2 1.3 1.2-1.8-1.1-2.2-2.4 1.2zM355.8 35.6l3.9 3.4-.5 3-3.9-1.3-2.5-3 3-2.1zM366.6 46.6l.5 2.3 4.2-.1 1.8-2.9-1.5-2.3-1.8 2.6-2.7-.7-.5 1.1zM354.9 51.7l1.1 1.6 1.1-1.3-1.1-1.7-1.1 1.4zM344.4 40.6l1.7 2.9 2-1.9-1-2.5-2.7 1.5zM349.4 39.6l.4 1.8 1.1-.8-.9-2-.6 1zM347.5 30l1.4 1.8 1.2-1.2-2.1-1.8-.5 1.2zM335.6 26.4l.6 2.4 1.8 1.4 2.7-.2 1.6 1.3 1-1.2-2-1.8-1.9.6-3.8-2.5zM336.1 32.6l-.2 2.1 1.9 1.9 1.9 2.4.6-1.1-.5-2.3 2.7-.6 3.3 1.1 2.1-2.1-1.9-2.3-1.6-.6-1.7 1.3-2.4.4-1.4.6-2.8-.8zM340.2 40.6l-.4 1.4 1.6.9.1-1.9-1.3-.4zM39.9 103.9l8.8 19.1 5.5-2.9.5-10.5-2.6-4-1.2 4.7-2.6-1.6-2.2-6.2-2.6 1.6-3.6-.2zM70.9 244.2v1.3l-4.1-.1-1.5 2.3-2.1.3-2.5 4.4-4.2 1.6-3-4.4-7-.9-3.3 3.4 7.1 4.1-2.1 1.5-3.7-2.2-2.1 1.6 1.3 2.5h2.7v.1l3.1 3.8.1.1-.1.1-2.2 4.4 2.9 3.7.1.1v.2l-.7 1.4-.2 2.9 1.7 2.2 1.7-1.9.1-.1h.1l2.7 1 1-1.6.1-.2.2.1 2.2.9.2.1v3.4l2.5 1.2.2.1v3.3000000000000003l1.3 2.2 3.2-.3 1-1.9.1-.1h5.3l3.1-3.5-.2-1.7-2.9-.3h-.2v-.3l-.1-2.4-2.7-3.8-.1-.1v-.1l1.5-5.1-1.8-2.7-.1-.2.2-.1 3.8-2.2.2-.1.1.2 1.4 1.3 2.6-.1 1.6-3.1-.6-5.2v-.1l.1-.1 4.1-2.7-.7-6.3-3.2-.2-2.3 1.6-.1.1-.1-.1-2.6-1.6-3.1-1.7zM98.2 282.9l4.4-1.5.7-3.4 3.7-2.1 4.1-1 1.4-.4-.1-5.6-2.5-.5h-.1v-.1l-1.2-1.7-.1-.1v-.1l-.1-3.2-1.5.7h-.1l-1.9-.2h-.3l.1-.2.1-2.4v-.1l.1-.1 1.9-2.2v-3l-4.3-4.1-2.5-.6h-.1l-1.7-2.3-.1-.1-.2-3.2-3.6-1.3h-.1l-.1-.1-1.5-3-1.9.6h-.1l-3.8-.5-.4 2.5v.1l-.1.1-3.5 2.2.7 6.5v.2l-.1.1-4.1 2.6.5 5.1.1.1h-.1l-1.6 3.3-.1.1h-.1l-2.9.2h-.2l-1.3-1.4-3.4 2 1.6 2.5.1.1v.1l-1.5 5.1 2.6 3.7 6.4.7.7-1.9.1-.1h.1l2.2.2h.2v.2l.7 3.2 2.5.4 2.2-1.4.1-.1.1.1 7.7 1.6h.1l.1.1 2 3.6zM79.2 312.7l4.1 1.5 10.9-.3-.9-4.3 2.8-.5 2.1-11.7-1.9-2.5-2.7-.7.4-2.2 3.4-3.1-3-4.2 1.4-.8 1.9-.8-1.9-3.5-7.5-1.6-2.1 1.3 1.4 3.6.1.1-.1.1-1.4 6.8 1.8 3.2v.2l-1.8 5.1.7 3.2.1.4-.4-.1-3.2-.3-1.6.7-.2.1-.1-.2-1.2-1.7-1 1.2 1.7 4v.2l-.1.1-2.3 1.9-2.1 1.1 2.7 3.7zM70.6 314.4l4.1.1 3.9-1.8-2.6-3.7-.2-.2.3-.1 2.2-1.2 2.1-1.7-1.6-4-.1-.1.1-.2 1.3-1.6.2-.2.2.3 1.3 1.8 1.5-.7h.1l3 .3-.7-2.9v-.1l1.8-5.2-1.8-3.2v-.1l1.4-6.9-1.3-3.6-2.6-.3h-.2v-.2l-.7-3.3-1.8-.1-.7 1.8v.2h-.2l-6.4-.7.1 2 2.9.4h.2v.2l.2 2v.1h-.1l-3.2 3.7-.1.1h-5.199999999999999l-1.1 1.8v.1l-.1.1-3.5.3h-.1l-.1-.1-1.5-2.4v-3.2l-2.6-1.2-.1-.1v-3.4l-1.9-.8-.9 1.7-.1.1h-.2l-2.8-1.1-1.5 1.8 1.7 2.2 1.9-.3h.1l.1.1 1.2 1.7 2.5.7.1.1.1.1 1 2.9 2.6 4.3v.2l-.7 4.2 2.7 4.8v.1l.9 3.8v.1l-.2 3.9 4.1 4.1h.1l.9 2.5zM45.4 327.9l-1.4 1.4.3 3.9 3.6 5.3-.3 5.5-.6 2.6 3.3 4 1.5-.6.9-1.6 2 1 2.1.7 2.5-1.6v-6.9l1.7-9.8 6.2-6 .6-6.3-.7-2.7 3-2.3-.9-2.3-3.9-4-1.5 1.1-.1.1h-.1l-4.2-.2-2.3 1.8.8 1.6.1.2-.2.2-2.1 1.2 2.6 3.8 2.9.5h.1v.2l1 3.4v.2l-.2.1-2.2.9h-.1l-2.2-.1-2.8 5.4-.1.3-.3-.2-2.2-1.8-1.2 1.4-.1.1h-.1l-5.4-.5zM44.2 323l1 2.5.4 2 5.1.4 1.3-1.5.2-.2.2.1 2.1 1.8 2.8-5.3v-.1h.2l2.3.1 1.9-.8-.8-3.1-2.7-.5h-.1l-.1-.1-3.7-5.3-2.9-.2-1.4.6 1.6 6v.2l-.2.1-7.2 3.3zM42.5 320.5l.1 1.1 1.3 1.1 7.1-3.4-1.5-5.7-1.3.6-1.2 3.9v.1h-.1l-1.8 1.5h-.1l-2.5.8zM37 312.3l.2 4.5 5.2 2.5.1.7 2.4-.8 1.7-1.3 1.2-3.9v-.1l.1-.1 3-1.3-2.3-1.8-.9 1.5-.1.1h-.1l-6-1.5-4.4 1.5h-.1zM33.2 303.3l2.7 3.1.1 4.1.9 1.3 4.6-1.5h.1l5.8 1.5 1.8-3.2-.8-2.7h-2.9000000000000004l-5.3-4.9-3.9-.1-3.1 2.4zM26.4 290.8l3.2 5.4v3.2l3.2 3.6 3.3-2.6h.2l3.7.1-.2-3.9v-.1l.1-.1 2-1.3-2.8-5.4-1 1.9-.1.2h-.1l-3.5-.4h-.1v-.1l-1.9-2.6-6 2.1zM20.4 256.5l.3 4.6-1.4 1.7.7 2 2.1 1.6-.1 3.3 1.2 5.2-.4 4.8-.9 8 1 1.4 2.1-.9 1.4 2.3 6.2-2.2.2-.1.1.1 1.9 2.6 3.2.3 2.3-4.6v-.1h.1l2.4-1-.9-1.4-.1-.1.1-.1 1.4-2.5-1.5-1.3-.2-.2.2-.2 1.8-1.8.2-1.5v-.1l.1-.1 2-.9.2-.1.1.2 1.3 2.3 1.7-1.4.2-3 .7-1.3-3-3.7-.1-.1.1-.1 2.3-4.4-2.9-3.6h-2.8000000000000003l-.1-.1-1.6-3.1-4.8-4.3-.7 6.3-2.6-1.3-5 .3-1.8 2.4-3.7-6.1-3 2.3zm4.9 28.7l-.2-3.1v-.4h.4l3.2-.3v-2.1l.1-.1.1-.1 3.6-2.7-2.3-1.4-2.9-3.4-.1-.1-.1-.1v-.2l.4-2.7v-.6l.3.1.3.1 2.5.9h.2v.2l2 3.2h3.4v.4l.2 2.9 2 1.7.1.1.1.1v.2l-.2 4v.4l-2.9 3.8-.4.5-.4.5-.1-.6-.1-.6-.4-3.3-4.5 5-.1.1-.1.1-.2-.1-.2-.1-3.4-1.6-.1-.1-.1-.1v-.1l-.1-.4zM49.1 276.8l-1.8 1.5-.2.2-.2-.3-1.3-2.3-1.7.8-.1 1.5-.1.1-1.6 1.6 1.4 1.3.1.1v.2l-1.4 2.6 1 1.5.1.3-.2.1-2.7 1-1 2.2 3.1 5.9.1.2-.2.1-2.1 1.3.2 4 5.3 4.7h3v.2l.9 2.9.1.1-.1.1-.9 1.5 2.6 2.1 3 .2h.1l.1.1.9 1.2 1.8-1.1-.8-1.6v-.2l.1-.1 2.5-2 .1-.1h.1l4.3.2 1.4-1.2.2-3.8-.9-3.7-2.7-4.9v-.2l.7-4.2-2.5-4.3v-.1l-1.1-2.7-2.4-.7-.1-.1-1.2-1.7-1.8.3-.2.1-.1-.2-3.8-4.7zM25.6 282.1l.2 3.1 3.4 1.6 4.9-5.4.4-.4v.5l.5 3.9 2.9-3.8.2-4-2.1-1.8h-.1v-.1l-.2-3h-3.1v-.1l-2.1-3.4-2.6-.9-.3 2.8 2.9 3.4 2.6 1.6.3.2-.3.2-3.9 2.9v2.4h-.2l-3.4.3zM433.1 377.6l11.1 4.5 10.2 2.3 2.1 8.1 7.4 3.9 5.2-.1 7.5-4.4 5.7 1.8 6-.4 1.6 2.7 3.4.2 1.2-4.2v-.1l.1-.1 3.3-1.7-3.5-3.9-.2-.2.2-.1 3.4-2.8-1.3-4-.1-.3h6.9l4.1-3.4h.2l3.6.5 6.8-9v-.1h.1l4.4-.3 1.3-2.1v-.1h.1l3.7-1.5 2.8-3.5.3-3.7-2.9-2-.1-.1v-3.8000000000000003l.1-.1 6.4-4.9 2.2-5.1v-.1h.1l5.7-2-.3-4.5-3.5-3.2-3.9-.6-.1-.1-.1-.1-3.2-9.7-2-1.8-.2-.2.2-.2 2-2.8-.3-2.8-2.4 2.7-.1.1h-.1l-2-.3-1.1 4.4-.1.1h-.1l-10.8 3h-.2l-.1-.1-1.8-2.5h-2.5l-2.4-1.3-1.2 3-.1.1-.1.1-5.1 1.7h-.2l-2.6-1-.6 3-.1.2h-.1l-5.3.7.5 2.5 3.2 2.7.2.2-.2.2-2.7 3.2-.5 4.8 1.8 4.1.2-.9 1.1-6.6v-.1l1.8-3v-.2h.2l2.3.3h.1l.1.2.4 2.5v.1l-1.1 6 .4 5.8.9 3.2h.1l-.1.1-1.2 3.1v.1l-1.9 1.7-.6 1.1.7 2v.2l-.8 2-.1.1h-.1l-2 .5-.1 2.2v.1l-2.6 4.2-.1.1-3.8 1.1-2.5 3.4-.1.1h-.1l-2.8-.2-.8 4.3v.1l-2.2 2.4v.1h-.1l-6.8 3-.9 3.1v.1l-.2.1-4.4 1.4-.2.1-.1-.3-.6-2.5-4.6-.9h-.2v-.2l-.4-3.4-3.2-4.1h-4.3999999999999995l-.1-.1-8.9-7v-.1l-2.8-3.8-4.5 3.2-.1.1h-.1l-2.5-.1.1.6.1.1-.1.1-1.4 1.4.5 2v.1l-.1.1-1.9 2.1 1.7 3.3zM370 396.5l16.8-6.3 6-.4 1 1.5 9 2 .7 4 3.4 1.7 9.5 1.1 3.8.5 1.9 1.8 3-1 2.8-2.4 1.9-4.8-3.2-3.9.4-6 2.1-.7.1-2.7 2.7-.1.8-3-1.8-3.4v-.1l.1-.2 1.9-2.1-.5-2-.1-.2.1-.1 1.4-1.4-.3-1.4-3.9.3h-.2l-9.8-6.9-.6 2.7v.2h-.2l-12 1.1-.7 3.1-.1.2h-.1l-2.3.6.2 2.2v.1l-.1.1-3.2 2.1-.2 2.1v.2l-.2.1-2.2.5-3.9 3.3h-.2l-9.2-1.2h-.1l-5.7-4-2.6-.2-1.6 4.4-.1.2h-.2l-6.5.4.4 4.5 3.9 7 .1.2-.1.1-2.8 1.9.7 4.3zM333.7 383.2l.5 4.5 4.2 2.4.1 4.4 4.2.9 1.7 2.1 4.7-2.5.9 3.3 3 4.4 4.7.5 1.4-3.1 6.3-.3 4.2-3.1-.7-4.6v-.1l.1-.1 2.7-1.8-3.8-6.8v-.1l-.4-4.4-3.4 2.6-.2.1-.1-.2-3.1-3.9-.1-.1v-.1l1.1-4.7-1.7-2-5.2-.2v.1h-.2l-3.3.7h-.1l-.2-.1-2.7-2.1-.2 2.2v.2l-2.6 3.9-.1.1h-.1l-4.8-.4-3.8 1.3-1.5 2.1 2.4 1.2h.1v.1l.7 2.8.1.3h-.3l-4.5.5zm28.2-11.1l2.9-1 2.1-1.1 3.6-3.6-.8-2.3v-.2l.6-2.6-.9-3.4v-.1l.1-.1 2.4-3 1.2-3.7-3.5-1.2h-.1v-.1l-.7-2.2v-.1l.1-.1 2.8-3.6-1.5-3.6v-.2l.7-2.8v-.1l.1-.1 3.7-1.7 1.8-1.8-3.9-7.5v-.2l.6-2.6-4.2 1.8h-.2l-5.4-2.4-6.2.9-2.3 2.8-.1.1h-6.5l-.1 17.1 2.3-.3h.2v.2l.4 3.4 3.2 3.4 1.1 3 3 2.1.2.2-.2.2-2.3 2.7 1.8 2 .1.1v.1l-.9 3.5v.1l-.1.1-2.3 1.5-.2 4.1 5.3.2h.1l.1.1 1.9 2zM300.7 344.4l6.3 30.2 3.4-.5 2.4-3.4 2.2.9.6 3.5 7.2 4 5.6-2.1 3 1.3 2.2 4.4 4.1-.5-.6-2.4-2.5-1.3-.2-.1.1-.3 1.8-2.4h.1l3.9-1.4h.1l4.7.5 2.5-3.8.2-2.6.1-.4.3.3 3 2.3 3-.6.2-4.4v-.1l.1-.1 2.3-1.5.9-3.3-1.9-2.1-.2-.1.2-.2 2.2-2.6-2.8-2.1h-.1v-.1l-1.1-3-3.3-3.5v-.1l-.4-3.3-2.3.3-2.9 2.7-.1.1h-.1l-5.6-.6-1.7 1.3-.2.1-.1-.1-1.7-1.3-4.9 4.7-.2.2-.1-.2-3.9-3.7v-.1l-.7-2.8-3.1-4.1-12.9 4.4h-.1l-2.8-1.2-1.2.9-.2.1-.1-.1-2-1.3-2.7 1.6zM290.9 331.5l6.7.2-2.7 2.9 5.6 9.3 2.7-1.6.2-.1.1.1 2 1.3 1.3-.9.1-.1.1.1 2.8 1.2 12.9-4.5h.2l.1.1 3.2 4.4h.1v.1l.6 2.7 3.6 3.5 4.9-4.7.1-.2.2.2 1.7 1.3 1.7-1.2v-.1h.1l5.6.6 2.9-2.6.1-17.3h-2.3l-3.1 2.7-.2.1-.2-.2-1.4-1.7v-.2l.4-6.5-9.4-.3h-.1l-.1-.1-1.7-3.2-4.9.2h-.2v-.2l-1-3.5-3-4-16.5-7.8v5.5h-.1l-3.1 1.8.9 3.5.1.3h-.3l-4-.2-3.2 1.3-1.8 3.2.4 9.5v.1l-2.1 5zM265.4 309.6l1.9.5.2 3.4-1.2 1.3.8 2.4-2.6 3 .5 2.2 5.6 1.3.3 3 2.7.2 2.1.5 2.1 2.3-3 2.5v2.1l3-.9 2.6 1.4 2.3-.5 2-1.7 5.6-1 2.2-5.3-.4-9.4v-.1l.1-.1 1.9-3.4.1-.1 3.2-1.3h.1l3.8.2-.9-3.3v-.2l.1-.1 3.2-1.8v-13.2l-2.3-2.4-.1-.2.1-.1 2.4-2.9-.2-1.8-4.4 3h-.2l-3.4-.1h-.1l-3.3-1.9-3.6.5-.1.1-.1-.1-4.7-3.4-2.1-.4h-.4l.2-.3 1.6-2.2-2.3-2.3-4.4 4.3-.4 4v.1l-1.3 1.5.3 1.3 2.8 1 .1.1v.1l.9 2.6h.1v.1l-.6 2.4v.1l-1 1.5-.1.2-.1-.1-3.3-.6-2.4 2.7-.7 3v.1l-.1.1-4.3 4-.8 2.1zM356.6 275.1l-3.6-2.5-7 4.1h-.30000000000000004l-5.9-4.4-8.5-.1h-.1v-.1l-5.6-3.7-4-1.1-3.7 2.8-2.7 8.8-.1.2h-.2l-3.3-.4-2.5 1.6-.5 2.7v.1l-.1.1-4.5 2.6.3 2.1v.1l-.1.1-2.3 2.8 2.2 2.3v7.8l16.7 7.9h.1v.1l3.2 4v.1l.9 3.4 4.8-.2h.2l.1.2 1.7 3.1 9.5.3h.2v.2l-.4 6.7 1.1 1.5 3.1-2.5.1-.1h9.1l2.4-2.7v-.1h.1l6.4-.9h.1l5.4 2.4 4.3-1.9.2-4.4v-.1l.1-.1 4.6-3.4.5-2.1-3.9-1.3h-.1l-2.8-2.9h-.1v-.1l-.5-3.8v-.1l.1-.1 5-4.3.2-2.5-3.3-.4h-.1l-.1-.1-3.6-7.6-12.6-1.9-.2-.1v-3.8000000000000003l1.7-2.1-1.7-6.2zM372.8 336.6l-1.5.7-.7 2.7 1.6 3.6v.2l-.1.1-2.8 3.6.6 1.9 3.6 1.3.3.1-.1.2-1.3 4h-.1l-2.3 3 .8 3.4h.1l-.1.1-.6 2.6.9 2.3v.1l-.1.1-3.7 3.8h-.1l-2.2 1.1-2.9 1.1-1.1 4.5 2.9 3.7 3.5-2.7.4-.3v.2l6.4-.4 1.7-4.4v-.2h.2l2.7.2 1.9-4v-.1h.1l3.4-1.3 1.1-2.3v-2.7h.1l3.1-1.7-.2-2.7-1.3-3.9-.6-3.7-2.9-4.3v-.30000000000000004l1.2-2.6-2.1-1.4-3.6.4h-4.2v-.1l-2-5.9zM366.8 142.9l2.2 2.9 1.6-.7-.5-4-1.6-.8-1.7 2.6zM373 124.5l1.1 1.5 1.2-1.3-.5-2-1.5.5-.3 1.3zM415.5 53.2l4.9.9-1.1-3.7-3.4.1-.4 2.7zM419.6 62.4l2.7-3.6-.6-3.2 2.6-1.7 2.6-2.6 2.9 2.6 1.6 4.6 1 2.1-2.7 1.4v2.6l-6.7 3-3.4-3.1v-2.1zM417.2 66.3l5.1 2-.7 2.4-2.4 1.3-3.4-2.3-.6-2.3 2-1.1zM421.7 74.5l2.3-5.6 6.3-3.1 1.1 4.3 1.7-.5.2-1.9 2.8 2.8-.2 3.7-2.1 3.4 1.8 2.1-.5 3.2-2.3 1.2-4.6-3.2-4.2-3.6-2.3-1v-1.8zM438.1 77.7l-.6 7.3-2.7 5 1 3.9 4.6-3.7 4.8-.3 2.5-2.6.3-5.8-2.7-3.4-2.2 2.2-1.3-1.3.2-3.5-3.9 2.2zM451.5 88.2l.4 2 3.6.8-.1-1.4-3.6-2.2-.3.8zM424.3 102.9l1.9 1.4 1.4-.8-1-2.1-2.3 1.5zM407.8 100.2l2.4 1.3.1-1.9-1.5-1.7-1.1.9.1 1.4zM422.4 108l.9 1 1.1-1.1-1.3-1.3-.7 1.4zM382.6 132.6l1.8 1.7 1.2-1.2-.4-1.9-1.6-.4-1 1.8zM387 134.8l1 .7.7-1.3-1.2-1.3-.5 1.9zM389.6 129.8l1 .7.6-1.1-1.5-1-.1 1.4zM391.4 127.1l1.2.9 1.1-1.5-1.8-1.3-.9.7.4 1.2zM383.3 117.9l1.3.8 1.9-1.1-1.1-1.9-1.6-.5-1.6 1.4 1.1 1.3zM387.3 111.3l-.4 1.1 1 1.4 1-1.1.1-1.3-1.7-.1zM384.3 64.9l-.3 1.5 1.6 1.6 2.2.1-.1-2-1.5-2-1.9.8zM394.1 53l2.1.7 2.3-.6-1.3-3-1.7-1.3-1.2 1.1-.3 1.9.1 1.2zM478.6 244.5l-1.6 1.8-.1.1h-.1l-3.8.8-3.4 1.5.2 3.8 1 2.5v.2l-1.9 4.3 1.9 3.1v.2l.4 4.6v.2l-3 5.8v.1h-.1l-5 3.1 1.9 3.2.1.1-.1.1-2.1 2.9 1.1 3.7 4.2 1.4h.1v.1l.6 2.8v.1l-.1.1-3.1 3.3-.2 2.3 2 .5h.1v.1l1 3v.1l-.1.1-2.3 2.3-1 3.5-.1.3-.3-.2-4.4-2.6h-.1v-.1l-2.1-4.5-4 1.8-.6 3.8v.1l-.1.1-8.9 9.7.4 4.5v.2l-.2.1-2.4 1-.2.1-.1-.2-3.4-7.4-2.3 3.1-.1.1h-.1l-9.2.4-3.6 6.7 4.1 6.4.1.1v.1l-.8 3.6v.2h-.2l-4 .6-2.3 4.4-.8 11.9v.3h-.3l-3.9-.4-2.8 1.3v2.3l6.7 6 10 7 4-.3h.2v.2l.2.7 2.6.1 4.6-3.3.2-.1.1.2 2.9 4 8.8 7h4.3999999999999995l.1.1 3.3 4.3v.2l.4 3.3 4.6.9h.2v.1l.6 2.4 4-1.3.8-2.8h-4.4l-.1-.1-.9-2-.1-.2.2-.1 2-1.2 2.7-.4 5.5-3.8 2-3 4.1-3.7.9-2.7 2.4-4.1 2.9-4.5 2.5-6.9 1.9-5.5-2-4.6v-.2l.5-5v-.2l2.6-3.1-3.1-2.6-.1-.1v-.1l-.5-2.9v-.3h.3l5.3-.7.6-3.1.1-.3.3.1 2.8 1 4.9-1.6 1.3-3.2.1-.2.2.1 2.5 1.3h2.6l.1.1 1.8 2.4 10.5-2.8 1.2-4.5.1-.2h.2l2.1.3 2.6-3 .4-.4.1.6.3 3.2 6.4 1 3.8-2.6.2-4.9-4-2.8-.1-.1v-.1l-.3-6.2v-.1l.1-.1 2.2-1.7h.2l5.5-.2-5.1-11.6-2.8-1.9-4.8 2.2-.2.1-.1-.3-1.8-5.3-7.7-3.1-3.9.6-6 12.9-4 4.7-.2.2-.2-.2-2.9-2.9-1.9 3.3-.1.1h-.1l-5.5.2-3.8 2.9-.2.1-.1-.2-3.6-3.8-.1-.1v-.1l.7-9.9 3.3-7.6-4.2-1.3h-.1v-.1l-2-4.5v-.2l1.5-6.3-3.4-1.9-.1-.1v-.1l.2-6.2-2.5-4.9-2 1.4-.1.1h-.1l-2.9-.2h-.2v-3.9000000000000004l.1-.1 2.3-1.4-1.4-2.9zm-23.6 120.3l-.5-2.4v-.2l.2-.1 2.3-.7-1-3.5-.1-.2.2-.1 2.8-1 .2-.1.1.2 2.2 4.3 5.4-3.2.2-.1.1.2 1.9 2.6 1.6 1.5 2.1-.8h3l.1.1 1.4 2.3.1.1-.1.1-5.6 7.1-.1.2-.2-.1-3.4-2.4-4.2.4h-.2l-2.5-1.5-2.9-2.1-3-.3h-.2l.1-.3z"/><path d="M455 362.5l.4 2 2.8.2h.1l.1.1h.1l2.9 2.2 2.4 1.5 4.1-.4h.2l.1.1 3.2 2.2 5.4-6.8-1.3-2h-2.7l-2 .7-.2.1-.1.1-.1-.1-.1-.1-1.6-1.5h-.1v-.1l-1.7-2.4-5.2 3.1-.3.1-.2.1-.1-.2-.1-.2-2.1-4.2-2.4.9 1 3.3v.3l.1.2-.2.1h-.2l-2.2.7z"/><path fill-rule="evenodd" clip-rule="evenodd" d="M493.8 396.2l2.2.1 2.2 4.2 17.1 1.6 11.5-6.9 3.7-.1 1.2-3.8 5.6-5.2 7.8-.4 2.3 2.2 3.3-3 13.8 2.2 2-5.4 4.7-3.3-2-4.8 2.1-13.1 3.5-3.5-2.4-6.3-5-.5 3.5-6.5 6.2-4.3-5.6-8.4-.1-.1.1-.1 1.9-2.7-3.4-1.9-.1-.1v-.1l-.5-6.6-3.3.8h-.2l.1-.2-2.1-3.7-4.4 2.5-.2.1-.1-.1-2.7-2.7-.1-.1.1-.2 1.6-2.2-5.4-3.6h-.1v-.1l-6.9-12.9h-5.7l-2.1 1.6.3 5.9 4 2.8.1.1v.1l-.2 5.1v.1l-.1.1-3.9 2.7-.1.1h-.1l-6.5-1-1.8 2.6 1.9 1.7v.1l3.2 9.6 3.8.7h.2l3.6 3.2.1.1v.1l.3 4.8v.2l-.2.1-5.7 2-2.2 5v.1l-6.4 4.9v3.3l3 2 .1.1v.1l-.3 3.9v.2l-2.9 3.6h-.1l-3.7 1.5-1.3 2.2-.1.1h-.1l-4.3.3-6.8 9-.1.1h-.1l-3.7-.5-4 3.4-.1.1h-6.3999999999999995l1.3 3.8.1.2-.1.1-3.4 2.7 3.6 3.9.2.2-.3.1-3.5 1.8-1.4 4.2zm29.5-15.3l1.2-3.1.1-.1.1-.1h.2l6.8-.8 1.9-4 .1-.3.1-.3.2.2.2.2 1.5 1.4 1.6-3.8v-.1l.1-.1h.2l3.4-.7h.2l.1.1.1.1 4.1 2.6.1.1.1.1v.4l-.5 2.7v.4h-.4l-2 .5 3.4 3.1.3.2.3.2-.3.2-.3.2-14.2 6.8-.1.1-.1.1-.1-.1-.1-.1-8.2-5.1-.2-.1-.2-.1.1-.2.2-.6z"/><path d="M525 378l-1.2 3.1 8.2 5.1 14.2-6.8-3.8-3.5-.3-.3.4-.1 2.5-.6.5-2.7-4.1-2.6-3.4.7-1.8 4.2-.1.3-.2-.3-1.8-1.6-2 4.1-.1.2h-.1l-6.9.8zM474.2 244.3l-.2.1-.1-.1-2.7-2.1h-6.6l.1-.3.4-3.5v-.2l3.8-4.5 1.1-3-2.5-1.7h-.1v-3.4l-2.1-2.4h-.1l.1-.2.9-4.6-2.4-1.9-.3-.1.2-.2 3.7-4.1-1.3-17.4-4.4-6.6 2.2-1.1 5.2-4.3.1-.1.1.1 3.1.3 1.1-5.4v-.1l1.5-2.3.4-3v-.1l.1-.1 6.4-5-2.7-3.3-.1-.1v-5.3l-5.6-7.9-.8-4.1-1.7-2.2-.1-.1.1-.1.1-2.3-3.4 1.7-3.9 3-5.4 1.6-2.1 3.6.2-5.2 10.8-11.2 6-10.8 2.8-9.7-8.4-9.5-7.8-.3-2.8 3.9-3.1.6 2.3-6.7-6.4-.8 2.1-3-3.9-3.3-3.5 1.4-5.6 8.3 1.3 5-6 .4.1 1.5 2.2 3.3-4.3-.9-2.2 2.1-5-.9-.6-2.3-7.1.2.2 4-8.5 1.2-5.8 4.6-4.4.1-3.3 2.9-1.4 5.8 2.7 5-4.1 1-11.1-1.8-6.4-.1-2 3.5-.2 9.1 4 4 2 4.5h-5.6l-4.9-9-3.5.2v.5l3.1 6.5.1.3-.3.1-3.3.5-.7 4.1 3 6.5.1.1-.8 3.1v.2h-.2l-7.2 3.3-.9 3.6 4.7 6.3 5.3 1.3h.2v.2l1.2 6.7-.3.8-1.9 4.8-.1.2h-.1l-4.9 1.3 1.5 3.5v.2l-1.6 4.6 3.9 5.1.1.1v.1l-1 9.2 3.1 4.3.1.1v.1l-1.2 6.6 4.7 3.5v.1l.1.1.7 4.7.1.1-.1.1-4.1 5.7-.4 5.1v.1h-.1l-6.3 8.1v6.4l5.2 2.9.1.2v.1l-1 2.4v.1l-.1.1-4.7 2-4 .5 1.7 6.1v.2l-1.7 2.1v3.2l12.5 2h.1v.1l3.7 7.5 3.4.5h.2v.2l-.2 2.9v.1h-.1l-5 4.3.5 3.5 2.7 2.8 4.1 1.3h.2v.3l-.7 2.4v.1h-.1l-4.5 3.4-.2 4.5v.2l-.6 2.8 3.9 7.6v.2l-.1.1-2 2-1.7.8 2 5.8h3.7l3.7-.5h.1l.1.1 2.4 1.5.2.1-.1.2-1.3 2.7 2.8 4.3v.1l.7 3.7 1.3 3.9v.1l.2 2.8v.2h-.1l-3.2 1.7v2.6l-1.1 2.4v.1h-.1l-3.4 1.3-1.9 3.9 5.5 3.9 9.1 1.1 3.9-3.2v-.1h.1l2.1-.5.1-2.1v-.1h.1l3.2-2.1-.2-2.2-.1-.3h.2l2.4-.6.8-3.2v-.2h.2l12-1.1.6-2.7-6.7-6-.1-.1v-2.8l.1-.1 3-1.4h.1l3.8.4.7-11.7h.1v-.1l2.4-4.6v-.1h.1l4-.6.8-3.3-4.1-6.4-.1-.2.1-.1 3.7-6.9.1-.2h.1l9.3-.4 2.5-3.3.2-.3.2.4 3.5 7.5 2-.8-.4-4.4v-.1l.1-.1 8.8-9.7.6-3.8v-.1l4.8-2.2.1.2 2.1 4.7 4 2.4 1-3.3v-.1l2.3-2.3-.9-2.7-2.1-.6h-.2l.1-.2.1-2.6.1-.1v-.1l3.1-3.2-.5-2.6-4.3-1.3h-.1v-.2l-1.2-3.9-.1-.2.1-.1 2.1-2.8-1.9-3.2-.1-.2.2-.2 5.1-3.1 2.9-5.7-.4-4.4-1.9-3.1-.1-.1.1-.2 1.9-4.2-1-2.5v-.1l-.2-4v-.1l.2-.1 3.5-1.6h.1l3.7-.8 1.6-1.8-1.3-1.6zM780.1 238.4l-1.1-13.1-1.4-6-4.3-4.3.4-6.4 2.2-1.8-7.5-8.7.2-6 3.1-3.4-.8-3.3-6.2-1.9-6.4-11.3 1.5-1.1 2 2.8 3.1-2-4.8-4.6-2.6 1.5-4.2-2.7-.1.1-2.1-5.1h-4.3l-.5 3-2.8-.3-8.9-17.7.6-5.6 3.5-.8-2.6-10.5 5.6 4.5.1-12.6 4.5-4.5 6.6-.2-3.8-9.2-1.8-20-4.3 1.3h-.2l-3.2-1.7-5.5 15.9-.1.2h-.2l-7-.2-6.5 2-.2.1-.1-.3-2.1-5.8-8.8.5-1.6 2.8v.1l-.2.1-6 1.4-1.1 3.1v.2h-.2l-3.3.3-1 3.7v.1l-.2.1-3.8 1.2.7 3.7 5.5 7.9 3.4.7.1.1v.1l2.4 6.1 3.8-.4h.1l.1.1 2.6 2.4v.1l.8 3.7 3.5 2 2.4-2.3-6.6-7.9 1.6-5.2 6.3-2.3-3.3 5.1.7 3.9 5.1 3.6 2.4.1-.2 3.6 2.3.6-2.1 10.4 2.3 3.9.8 12.2 1.8 7.8 2.5 7.8-2.9 3.2 1 3-1.6 2.1 4 4.7.7 7.4 5.5 6.3 6.6 7.4zM237.8 219.4h-.1l-7.4-6.1-2.7 1.4-.1.1-7.4-.9h.1l-4.9-2.6h-.1l-4.5-5.1-5.8-.5-1.7 4.2 4.1 5.5v.1l.3 3.9v.2h-.2l-6.8 2.9v2.3l1.9 1.6.2.1-2.2 2.9-1.8 2-2.5 6.5h-.1l-2.1 2.3-1.3 3.5v.1h-.1l-2.2 2.5-.1.1h-.1l-2-.1-.1 4.8 2.2-.1h.3v3.8l4.8.3h.2v.2l.2 2.7 2.1.5h.1v.2l.3 1.3v.1l.3 1.9.7.9 1.9-.4 4-4.8.1-.1h.1l4.5-.5 2.9-4.6.2-.2.2.2 2.1 2.3 1.8-1.2.8-3.2v-.2h.2l5-.2 1.4-1.7.4-3.5v-.2l2.3-2.6-1.7-3.2v-.1l.1-2.6v-.1l.2-.1 5.4-2.4 6.2-6.1 4.2-5.6.7-1.8zM18.4 252.5l2.8-3.2-6.4-8.3 3.8-10.7-2.7-2.2-2.3 1.6-9.3-6.3-1.1 1.9.3 7.5-3.5 3.7.9 5.2 6.1-.4 6.8 8.5z"/></g></svg>