<svg xmlns="http://www.w3.org/2000/svg" xmlns:xlink="http://www.w3.org/1999/xlink" preserveAspectRatio="xMidYMid" width="14" height="16" viewBox="0 0 14 16">
  <defs>
    <style>

      .cls-2 {
        fill: #cacaca;
      }
    </style>
  </defs>
  <path d="M13.067,15.387 C13.067,15.387 0.933,15.387 0.933,15.387 C0.418,15.387 -0.000,14.958 -0.000,14.430 C-0.000,14.430 -0.000,4.851 -0.000,4.851 C-0.000,4.851 -0.000,3.893 -0.000,3.893 C-0.000,3.893 12.133,0.062 12.133,0.062 C12.352,0.002 12.532,-0.043 12.717,0.032 C12.956,0.129 13.067,0.276 13.067,0.541 C13.067,0.541 13.067,3.893 13.067,3.893 C13.582,3.893 14.000,4.322 14.000,4.851 C14.000,4.851 14.000,14.430 14.000,14.430 C14.000,14.958 13.582,15.387 13.067,15.387 ZM12.133,1.020 C12.133,1.020 3.033,3.893 3.033,3.893 C3.033,3.893 12.133,3.893 12.133,3.893 C12.133,3.893 12.133,1.020 12.133,1.020 ZM13.067,10.119 C13.067,9.855 13.067,9.999 13.067,9.640 C13.067,9.640 11.200,9.640 11.200,9.640 C11.200,9.855 11.200,9.855 11.200,10.119 C11.200,10.384 11.200,10.288 11.200,10.598 C11.200,10.598 13.067,10.598 13.067,10.598 C13.067,10.269 13.067,10.384 13.067,10.119 ZM0.933,4.851 C0.933,4.851 12.600,4.851 12.600,4.851 C12.858,4.851 13.067,5.065 13.067,5.330 C13.067,5.330 13.067,8.682 13.067,8.682 C13.067,8.682 10.733,8.682 10.733,8.682 C10.476,8.682 10.267,8.897 10.267,9.161 C10.267,9.161 10.267,11.077 10.267,11.077 C10.267,11.342 10.476,11.556 10.733,11.556 C10.733,11.556 13.067,11.556 13.067,11.556 C13.067,11.556 13.067,13.950 13.067,13.950 C13.067,14.215 12.858,14.430 12.600,14.430 C12.600,14.430 1.400,14.430 1.400,14.430 C1.142,14.430 0.933,14.215 0.933,13.950 C0.933,13.950 0.933,5.180 0.933,4.851 Z" id="path-1" class="cls-2" fill-rule="evenodd"/>
</svg>
