<svg xmlns="http://www.w3.org/2000/svg" xmlns:xlink="http://www.w3.org/1999/xlink" preserveAspectRatio="xMidYMid" width="14" height="14" viewBox="0 0 14 14">
  <defs>
    <style>

      .cls-2 {
        fill: #abafb3;
      }
    </style>
  </defs>
  <path d="M1.713,0.254 C1.713,0.254 0.417,1.550 0.417,1.550 C-0.299,2.266 0.046,3.120 0.417,4.142 C0.417,4.142 2.199,7.180 4.502,9.484 C6.951,11.933 9.812,13.540 9.812,13.540 C10.757,14.026 11.688,14.256 12.403,13.540 C12.403,13.540 13.699,12.243 13.699,12.243 C14.057,11.886 14.134,11.248 13.699,10.947 C13.699,10.947 11.108,9.003 11.108,9.003 C10.669,8.706 10.170,8.645 9.812,9.003 C9.812,9.003 9.812,9.003 9.812,9.003 C9.812,9.003 9.812,9.003 9.812,9.003 C9.812,9.003 9.045,9.770 9.045,9.770 C8.147,9.099 7.147,8.281 6.248,7.383 C5.454,6.588 4.747,5.726 4.159,4.936 C4.159,4.936 4.952,4.142 4.952,4.142 C5.310,3.784 5.250,3.285 4.952,2.846 C4.952,2.846 3.009,0.254 3.009,0.254 C2.651,-0.104 2.071,-0.104 1.713,0.254 M2.969,4.830 C2.969,4.830 4.010,3.789 4.010,3.789 C4.238,3.561 4.199,3.243 4.010,2.964 C4.010,2.964 2.773,1.314 2.773,1.314 C2.545,1.010 2.176,1.087 1.949,1.314 C1.949,1.314 1.124,2.139 1.124,2.139 C0.801,2.444 0.894,3.153 1.065,3.494 C1.830,4.953 3.530,7.198 4.952,8.679 C6.593,10.459 10.460,12.892 10.460,12.892 C10.758,13.048 11.587,13.061 11.814,12.833 C11.814,12.833 12.639,12.008 12.639,12.008 C12.809,11.723 12.886,11.392 12.639,11.183 C12.639,11.183 10.990,9.946 10.990,9.946 C10.711,9.757 10.393,9.718 10.165,9.946 C10.165,9.946 9.149,10.962 9.149,10.962 C8.910,10.793 5.093,8.284 2.969,4.830 Z" id="path-1" class="cls-2" fill-rule="evenodd"/>
</svg>
