<svg xmlns="http://www.w3.org/2000/svg" preserveAspectRatio="xMidYMid" width="11" height="16" viewBox="0 0 11 16"><defs><style>.cls-2 { fill: #6d9edc; }</style></defs><path d="M8 16h-5c-1.657 0-3-1.344-3-3.001v-1.999c0-1.314.849-2.418 2.025-2.824-.64-.864-1.025-1.97-1.025-3.176 0-2.762 2.015-5.001 4.5-5.001s4.5 2.239 4.5 5.001c0 1.206-.385 2.312-1.025 3.176 1.176.406 2.025 1.51 2.025 2.824v1.999c0 1.657-1.343 3.001-3 3.001zm1-11c0-2.21-1.567-4-3.5-4s-3.5 1.79-3.5 4c0 2.209 1.567 4 3.5 4s3.5-1.791 3.5-4zm1 6.25c0-1.063-.807-1.949-1.888-2.184-.737.585-1.637.934-2.612.934-.975 0-1.875-.349-2.612-.934-1.081.235-1.888 1.121-1.888 2.184v1.5c0 1.242 1.099 2.249 2.454 2.249h4.091c1.356 0 2.455-1.007 2.455-2.249v-1.5z" id="path-1" class="cls-2" fill-rule="evenodd"/></svg>