<?xml version="1.0" encoding="utf-8"?>
<!-- Generator: Adobe Illustrator 18.1.0, SVG Export Plug-In . SVG Version: 6.00 Build 0)  -->
<svg version="1.1" id="Layer_1" xmlns="http://www.w3.org/2000/svg" xmlns:xlink="http://www.w3.org/1999/xlink" x="0px" y="0px"
	 viewBox="0 0 408 409.6" enable-background="new 0 0 408 409.6" xml:space="preserve">
<g>
	<path fill="#abafb3" d="M204.7,0C91.6,0-0.1,91.7-0.1,204.8c0,113.1,91.7,204.8,204.8,204.8c113.1,0,204.8-91.7,204.8-204.8
		C409.5,91.7,317.8,0,204.7,0L204.7,0z M204.7,371.2c-91.9,0-166.4-74.5-166.4-166.4c0-91.9,74.5-166.4,166.4-166.4
		c91.9,0,166.4,74.5,166.4,166.4C371.1,296.7,296.6,371.2,204.7,371.2L204.7,371.2z M153.5,115.2l153.6,89.6l-153.6,89.6V115.2z
		 M153.5,115.2"/>
</g>
</svg>
